<?xml version="1.0" encoding="utf-8"?>
<!-- Generator: Adobe Illustrator 24.2.1, SVG Export Plug-In . SVG Version: 6.00 Build 0)  -->
<svg version="1.1" id="Layer_1" xmlns="http://www.w3.org/2000/svg" xmlns:xlink="http://www.w3.org/1999/xlink" x="0px" y="0px"
	 viewBox="0 0 276 197" style="enable-background:new 0 0 276 197;" xml:space="preserve">
<style type="text/css">
	.st0{fill:#EBF3FA;}
	.st1{fill:#DFEBFD;}
	.st2{fill:#BED7FB;}
	.st3{fill:#9EC3F6;}
	.st4{fill:#CDE0FB;}
	.st5{fill:#FFFFFF;}
	.st6{fill:#ADCBF9;}
	.st7{fill:#D86713;}
	.st8{fill:#F99746;}
	.st9{fill:#EE9849;}
	.st10{fill:#F1A34F;}
	.st11{opacity:0.4;fill:#D86713;}
	.st12{fill:#699DEE;}
	.st13{fill:#E9F3FE;}
	.st14{fill:#AFCDFB;}
	.st15{fill:#2B478B;}
	.st16{fill:#233862;}
	.st17{fill:#C65447;}
	.st18{fill:#FFB27D;}
	.st19{fill:#E2915A;}
	.st20{fill:#FCECDB;}
	.st21{fill:#548EE2;}
	.st22{fill:#F4D2B8;}
	.st23{fill:#568CDB;}
	.st24{fill:#B5453C;}
	.st25{fill:#ED7D2B;}
	.st26{fill:#ED975D;}
	.st27{fill:#EBF3FF;}
	.st28{fill:#2E3552;}
</style>
<g>
	<path class="st0" d="M-23.5,199.6c0,0-43.8-47-7.4-97.9C1.3,56.6,39,59.7,66.6,78c11.8,7.8,45.6,1,74.5-45
		c39.3-62.6,175.7-24.6,150.8,71.7c-12,46.6,36.6,48.3,11.8,95L-23.5,199.6z"/>
	<g>
		
			<rect x="-10.4" y="144.6" transform="matrix(0.7358 -0.6772 0.6772 0.7358 -109.3959 50.9513)" class="st1" width="42.1" height="42.1"/>
		
			<rect x="-21.8" y="149.1" transform="matrix(0.7358 -0.6772 0.6772 0.7358 -104.0274 39.9747)" class="st2" width="42.1" height="8.5"/>
	</g>
	<g>
		<polygon class="st3" points="102.3,13.9 123.5,16.9 109.4,7.3 108.7,10.4 103.6,11.3 		"/>
		<polygon class="st4" points="123.5,16.9 105.9,7.8 88.5,7 		"/>
		<polygon class="st4" points="109.4,7.3 123.5,16.9 112.6,1.9 		"/>
	</g>
	<g>
		<path class="st5" d="M221.1,55.8l-5.3,3.8l-5.4-3.8c1.2-1.7,3.2-2.8,5.4-2.8C217.9,53.1,219.9,54.2,221.1,55.8z"/>
		<g>
			<path class="st5" d="M215.7,43.7c-5.4,0-10.1,2.7-13,6.8l3.4,2.4c2.1-3,5.6-5,9.6-5c3.9,0,7.4,1.9,9.6,4.9l3.4-2.4
				C225.8,46.3,221,43.7,215.7,43.7z"/>
		</g>
		<g>
			<path class="st5" d="M215.7,26c-11.4,0-21.4,5.6-27.5,14.3l3.4,2.4c5.3-7.6,14.2-12.5,24.1-12.5c9.9,0,18.6,4.9,24,12.3l3.4-2.4
				C237,31.5,227,26,215.7,26z"/>
		</g>
		<g>
			<path class="st5" d="M215.7,35.7c-8.1,0-15.3,4-19.6,10.1l3.4,2.4c3.6-5.1,9.5-8.4,16.2-8.4c6.6,0,12.5,3.3,16.1,8.2l3.4-2.4
				C230.9,39.6,223.7,35.7,215.7,35.7z"/>
		</g>
	</g>
	<path class="st6" d="M104.9,79.1L100,79c1.6,2,1.9,3.9,0.9,5.5c-1,1.6-3.3,3-6.8,4c2.6-7,4-14.5,4-22.1c0-16.5-6.4-32.6-18.5-44.7
		C67.9,9.9,52,3.1,34.9,3.1c-9.6,0-18.9,2.1-27.4,6.2c0,0,0,0,0,0c-2.7-0.8-5.4-1.5-7.9-2c-12.9-2.6-22.1-0.8-25.8,5.1
		c-3.5,5.6-1.6,14.1,5.4,23.9c0,0,0,0,0,0c-1.6,2.9-3.1,6.3-4.2,9.6c-13.2,0.8-20.3,3.1-22.8,7.3c-3,4.9,1.1,11.5,14.1,17.9
		c1.8,0.9,3.7,1.8,5.7,2.6c1.6,13.7,7.8,27.1,18.1,37.3c5.8,5.8,12.6,10.4,20.1,13.6c23.1,9.7,50.6,5.2,69.4-13.6
		c5.7-5.7,10.1-12.2,13.3-19.5c6.4-1.3,10.7-3.4,12.4-6.2C106.4,83.4,106.3,81.3,104.9,79.1z M89.8,89.4c-4.3,0.8-9.6,1.2-15.9,1.3
		c-9.7,0.1-20.8-0.6-32.6-2.2c1-2.1,2-4.4,2.9-6.6c3.6,1.2,7.2,2.2,10.5,2.9c3.9,0.8,7.4,1.2,10.5,1.2c7.4,0,12.7-2.1,15.3-6.3
		c0.4-0.7,0.8-1.4,1-2.2h-3.8c-0.1,0.1-0.1,0.2-0.2,0.3c-1.9,3.1-6.3,4.7-12.3,4.7c-2.9,0-6.2-0.4-9.9-1.1c-3.2-0.6-6.5-1.5-9.9-2.7
		c0.9-2.3,1.8-4.6,2.6-6.9c2.3-6.3,4.3-12.6,5.8-18.6c12.9,1.9,26.3,2,39.2,1c0.8,4,1.2,8,1.2,12.1C94.4,74.3,92.9,82.1,89.8,89.4z
		 M11.5,120.8c-1.8-0.7-2.8-3.3-3.2-5.4c-0.7-3.3-0.9-7.9-0.4-13.4c0.2-2.8,0.6-5.7,1.1-8.8c7.5,2,14.9,4.6,22.1,7.7
		c-1.6,2.8-3.3,5.4-4.9,7.8c-3.1,4.5-6.2,8-8.9,10C15.7,120,13.3,121.5,11.5,120.8z M32.9,98c-7.6-3.3-15.3-5.9-23.2-8
		c0.3-1.4,0.6-2.9,0.9-4.3c2.2,0.5,4.4,1,6.6,1.4c6.6,1.3,13.1,2.5,19.5,3.4C35.5,93.1,34.2,95.6,32.9,98z M18.7,84.7
		c-2.5-0.5-5-1.1-7.5-1.6c1.2-4.8,2.6-9.8,4.2-14.9c8.6,5.3,17.4,9.6,25.7,12.7c-1,2.5-2.1,4.9-3.2,7.3C31.6,87.1,25.1,86,18.7,84.7
		z M-2.4,19.8c4.8,9.8,14,17.9,23.9,23.3c-2.4,5.2-4.7,10.8-6.8,16.6c-0.4,1.1-0.8,2.2-1.1,3.2C1,54.7-9.6,45.3-16.6,36.2
		c0,0,0,0,0,0C-12.9,29.9-8.1,24.4-2.4,19.8z M51.4,10.7c1.8,0.7,2.8,3.3,3.2,5.4c0.7,3.3,0.9,7.9,0.4,13.4c-0.5,6-1.7,12.8-3.5,20
		c-8.8-1.5-17.5-4-25.6-7.9C29.4,34.4,33,28,36.7,22.8c3.1-4.5,6.2-8,8.9-10c1.4-1.1,3.3-2.2,4.9-2.2C50.8,10.5,51.1,10.6,51.4,10.7
		z M50.7,52.7c-1.5,5.8-3.4,11.9-5.7,18c-0.9,2.4-1.7,4.7-2.6,6.9c-8.3-3.1-17.2-7.4-25.9-12.8c0.4-1.3,0.9-2.6,1.4-4
		c2.1-5.7,4.3-11.1,6.6-16.3C32.8,48.5,41.7,51.1,50.7,52.7z M77,24.2c7.7,7.7,12.9,17,15.4,26.7c-13.7,1-26.3,0.7-37.6-0.9
		c1.8-7.3,3-14.2,3.5-20.2c0.6-6.7,0.5-14.6-2.2-19.1C64,13.7,71.1,18.2,77,24.2z M34.9,6.7C39,6.7,43,7.1,47,8
		c-4.7,2-9.5,7.7-13.1,12.9C30.2,26.2,26.5,32.7,23,40C13.6,34.9,4.6,27,0.4,17.7C10.3,10.6,22.3,6.7,34.9,6.7z M-23.4,14.2
		c1.9-3.1,6.3-4.7,12.3-4.7c2.9,0,6.2,0.4,9.9,1.1c1.4,0.3,2.8,0.6,4.2,1c0,0,0,0,0,0c-8.7,5-16.3,12.3-22,21.4c0,0,0,0,0,0
		C-24.3,25-25.9,18.3-23.4,14.2z M-18.4,39.5C-18.4,39.5-18.4,39.5-18.4,39.5c7.4,9.2,18.2,18.6,30.9,26.8c-1.8,5.5-3.3,10.8-4.6,16
		c-10.5-2.5-22.7-6.1-32.4-10.2c-0.8-8,0.1-16.1,2.5-23.7C-21,45.4-19.8,42.3-18.4,39.5z M-30.8,69.2c-11.4-5.6-16.6-10.9-14.3-14.7
		c1.9-3.1,8.7-5.2,19.2-5.9c-2.1,7.1-2.8,14.5-2.4,21.9C-29.2,70-30,69.6-30.8,69.2z M7.3,84.9c-0.3,1.4-0.6,2.9-0.9,4.3
		C5.7,89,5,88.8,4.2,88.6c-12.4-2.8-21.6-3.4-25.9-3.5c-1.1-3.2-1.8-6.5-2.3-9.8C-15.6,78.6-6.1,81.7,7.3,84.9z M-20.5,88.6
		c4.6,0.2,13.1,0.9,23.9,3.4c0.8,0.2,1.6,0.4,2.3,0.6c-0.6,3.3-1,6.4-1.2,9.3c-0.5,5.5-0.5,11.9,1,16.5c-4.7-2.7-9-5.9-12.9-9.8
		C-13.1,102.7-17.5,95.9-20.5,88.6z M16.8,123.1c4.4-2.3,8.8-7.6,12.2-12.5c1.8-2.5,3.5-5.3,5.3-8.3c10,4.5,19.6,10.1,28.7,16.6
		C48.1,126.8,31.3,127.8,16.8,123.1z M77,108.5c-3.3,3.3-6.9,6.2-10.8,8.6c-9.5-6.9-19.6-12.9-30.2-17.7c1.5-2.7,2.9-5.5,4.3-8.4
		c9.7,1.3,19,2.1,27.5,2.3c2.2,0.1,4.4,0.1,6.5,0c5.4-0.1,10.2-0.4,14.4-1C85.6,98.3,81.7,103.7,77,108.5z"/>
	<g>
		<g>
			<path class="st7" d="M75.6,88.9l-8.7,104c0,0-0.9,6.3,3.8,6.3c7.7,0,38.4,0,38.4,0s-5.8-1.3-5.7-4.3c0.1-3.5,10.2-107,10.2-107
				L75.6,88.9z"/>
			<path class="st8" d="M111.5,197.4c-1.5,0-30.8,0.1-38.3,0c-3.3,0-3.8-2.9-3.9-4.8c0-0.9,0.1-1.5,0.1-1.5l0.2-2.7l0.6-6.9l0.5-6.1
				l0.7-7.8L72,161l6.2-73.9l37.9-1c0,0-4.3,43.3-7.3,74.9c-0.3,3.5-0.7,6.9-1,10c-0.1,1-0.2,2-0.3,2.9c-0.3,3-0.5,5.7-0.8,8.1
				c-0.1,1.3-0.2,2.5-0.3,3.5c-0.4,4.3-0.6,7-0.6,7.5c0,0.3,0,0.6,0.1,0.8C106.6,197.3,111,197.4,111.5,197.4z"/>
			<polygon class="st8" points="-16.4,32.3 4.9,117.9 7.8,129.7 17.7,169.5 202.1,169.5 165.5,32.3 			"/>
			<polygon class="st9" points="-16.4,32.3 -19.4,33.3 13.8,172.5 17.7,169.5 			"/>
			<polygon class="st7" points="13.8,172.5 197.1,172.5 202.1,169.5 17.7,169.5 			"/>
			
				<rect x="78.2" y="197.4" transform="matrix(-1 -1.224647e-16 1.224647e-16 -1 196.0141 396.7546)" class="st10" width="39.7" height="1.9"/>
			<polygon class="st10" points="193.2,144.3 163.3,34.2 -16.7,34.2 -16.7,32.3 165.5,32.3 195.4,144 			"/>
			<polygon class="st7" points="107.8,172.5 107.6,173.9 70.2,181.5 70.8,175.4 71,172.5 			"/>
			<path class="st11" d="M111.5,197.4c-1.5,0-30.8,0.1-38.3,0c-3.3,0-3.8-2.9-3.9-4.8l37.1-7c-0.4,4.3-0.6,7-0.6,7.5
				c0,0.3,0,0.6,0.1,0.8C106.6,197.3,111,197.4,111.5,197.4z"/>
			<polygon class="st11" points="98.7,141.8 17.7,169.5 7.8,129.7 			"/>
			<polygon class="st12" points="-16.4,32.3 165.5,32.3 195.1,142.6 10.1,142.6 			"/>
		</g>
		<path class="st7" d="M114.8,156.5c-0.5-2.7-3.1-4.9-5.8-4.9c-2.7,0-4.5,2.2-3.9,4.9c0.5,2.7,3.1,4.9,5.8,4.9
			C113.6,161.4,115.3,159.2,114.8,156.5z"/>
		<polygon class="st13" points="186.5,137.8 16.1,137.8 -3.2,61 -4.6,55.1 -5.9,50 -6.9,46 -8.9,38.3 159,38.3 159.2,38.7 161.2,46 
			162.3,50 163.7,55.1 165.3,61 		"/>
		<polygon class="st13" points="186.5,138.1 16.1,138.1 -3.2,61.2 -4.6,55.3 -5.9,50.3 -6.9,46.3 -8.9,38.5 159,38.5 159.2,38.9 
			161.2,46.3 162.3,50.3 163.7,55.3 165.3,61.2 		"/>
		<polygon class="st14" points="161.2,46 -6.9,46 -8.9,38.3 159,38.3 159.2,38.7 		"/>
		<g>
			<path class="st13" d="M-4.2,42.1c-0.2-0.8,0.3-1.5,1.1-1.5s1.6,0.7,1.8,1.5c0.2,0.8-0.3,1.5-1.1,1.5S-4,42.9-4.2,42.1z"/>
			<ellipse transform="matrix(0.662 -0.7495 0.7495 0.662 -30.8477 15.872)" class="st13" cx="2.2" cy="42.1" rx="1.3" ry="1.7"/>
			<path class="st13" d="M6,42.1c-0.2-0.8,0.3-1.5,1.1-1.5s1.6,0.7,1.8,1.5c0.2,0.8-0.3,1.5-1.1,1.5C7,43.6,6.2,42.9,6,42.1z"/>
		</g>
		<g>
			<path class="st15" d="M69.2,138.1H52.3c-0.2-1.3-0.3-2.7-0.4-4.2c-0.2-2.6-0.4-5.4-0.5-8.3c0-0.7-0.1-1.4-0.1-2
				c0-0.9-0.1-1.7-0.1-2.6c0-1.5-0.1-3-0.1-4.5c0,0,0,0,0,0c0-1.9,0-3.9,0-5.9c0,0,0,0,0,0c0-0.5,0-1,0-1.5v0c0-0.5,0-0.9,0-1.4
				c0-4.2,0.1-8.3,0.2-12.2c0.2-8.5,0.5-15.5,0.7-18.9v0c0.1-1.4,0.1-2.2,0.1-2.2c0,0,0,0,0,0c0,0,0.3,0.1,0.7,0.1
				c0.3,0.1,0.7,0.2,1.1,0.3h0c0.4,0.1,0.8,0.3,1.3,0.4c0,0,0,0,0,0c0.8,0.3,1.6,0.7,2.3,1.1c0,0,0,0,0,0c1.3,0.8,2.4,1.8,2.9,3.2
				c0.4,1.2,1.5,7.4,2.7,15.7c0,0.2,0.1,0.5,0.1,0.7c0.7,4.4,1.4,9.3,2.1,14.4c0.8,5.3,1.5,10.8,2.2,15.9
				C68.2,130.6,68.7,134.7,69.2,138.1z"/>
			<path class="st16" d="M64.5,138.1H44.9c-0.4-1.6-0.7-3.2-1-4.6c-0.9-4-1.4-7.3-1.4-9.1c0-0.8,0.3-1.5,0.9-2
				c0.4-0.3,0.8-0.6,1.4-0.8c1.7-0.6,4-0.7,6.5-0.6c0.8,0.1,1.7,0.1,2.5,0.2c4.7,0.6,9,1.7,9,1.7s0.3,1.2,0.6,3.2
				c0.3,1.5,0.5,3.6,0.8,6c0.1,1.4,0.2,2.9,0.3,4.5C64.4,137.1,64.5,137.6,64.5,138.1z"/>
			<path class="st17" d="M55.4,124.3l-0.2,1.4l-0.9,6.9l-0.2,1.2l-0.6,4.3H33.1c-0.2-2.8-0.3-5.6-0.3-8c0-0.3,0-0.5,0-0.8
				c0-3.6,0.3-6.3,1.4-7c1.2-0.8,5.1-0.6,9.2,0c0.4,0,0.8,0.1,1.2,0.2c2.4,0.3,4.8,0.7,6.8,1.1c1,0.2,1.9,0.3,2.6,0.5
				C54.8,124.2,55.4,124.3,55.4,124.3z"/>
			<path class="st5" d="M32.8,78c0,0,11.2-7.3,19.3-3.5c1.3,0.6,2.7,2.2,3.8,3.4c2.9,3.2,8.6,54.2,8.6,54.2s-16.1,5.5-31.7-1.9V78z"
				/>
			<path class="st15" d="M52.7,74.2c0,0,11.4,4.7,12.9,8.2c1.5,3.6,6.5,25.6,6.5,28.1c0,2.6-8.7,0.6-10.1-3.6
				c-1.2-3.5-5.1-14.1-7.2-20.8L52.7,74.2z"/>
			<g>
				<path class="st18" d="M50.3,77.8c-2.5,0.5-6.1,0-8.8-1.8c1.2-2.9,1.7-5.1,1.9-6.6c0-0.1,0-0.2,0-0.2c0.1-0.8,0.1-1.3,0-1.5h6.4
					c0,0,1.8,0.8,1.8,1.4c0,0.3,0,0.6,0,0.9c0,0.7,0,1.4,0.1,1.9c0.1,1.8,0.3,2.6,0.3,2.6S52.8,77.3,50.3,77.8z"/>
				<path class="st19" d="M51.7,71.8c-4.9,0.9-7.7-1.7-8.3-2.4c-0.1-0.1-0.1-0.2-0.1-0.2c0.1,0,0.1,0,0.2-0.1
					c1.8-0.7,5.9-0.2,8.2,0.7C51.6,70.6,51.7,71.2,51.7,71.8z"/>
				<path class="st18" d="M41.8,66.6c0.9,4.7,6.9,4.5,9.5,4.2c0.7-0.1,1.2-0.2,1.2-0.2c0.8-0.2,1.3-1.5,1.5-3.2
					c0.4-3.4-0.1-8.3-0.7-9.6c-0.9-1.9-2.5-4-8.5-2.5C38.7,56.8,40.7,60.6,41.8,66.6z"/>
				<path class="st16" d="M53.6,55.2c-0.8-1.1-2.6-2.6-4.2-3.4c-3.4-1.9-7.8,0.1-7.8,0.1c-5,2.2-6.3,6-3.6,11.9
					c2.8,6.3,5.4,5.5,5.4,5.5s-0.6-0.3-0.5-2.3c0-0.1,0-0.2,0-0.3c0-0.4-0.1-0.8-0.4-1.1c-0.6-0.5-0.9-2.2-0.4-2.7
					c0.6-0.6,1.5,0.1,1.8,0.6c0.2,0.4,0.7,0.5,1.1,0.2c1.5-1,0.5-2.9,2-4.1c1.5-1.2,4.5-0.2,6.7-1.1C56.5,57.5,54.2,56.1,53.6,55.2z
					"/>
			</g>
			<path class="st15" d="M54.3,138.1H29.9c0.2-5.1,0.4-11.1,0.6-17.2c0.1-1.6,0.1-3.2,0.2-4.8c0-0.7,0.1-1.3,0.1-2
				c0.5-13.6,1.1-25.9,1.2-26.6c0.3-1.5,0.5-2.8,0.8-3.9c0.8-3.2,1.7-5,3.8-6.5c0.2-0.2,1.9-1,3.3-1.7c1.2-0.6,2.3-1.1,2.3-1.1v0h0
				c0.2,0.1,0.5,0.5,0.8,1c0.3,0.5,0.6,1.2,0.9,1.9C45,80,46.2,84.4,47,87.7c0,0,0,0,0,0c0,0,0,0,0,0c0,0,0,0,0,0
				c0.5,2.1,0.9,3.8,1,4.2c0.2,0.8,0.4,2.3,0.7,4.4v0c0.4,2.9,0.9,6.7,1.4,11.1v0c0.1,0.5,0.1,0.9,0.2,1.4c0.1,0.5,0.1,1.1,0.2,1.6
				v0c0,0.2,0,0.3,0.1,0.5v0c0.2,1.7,0.4,3.5,0.6,5.4c0,0,0,0,0,0c0.2,1.5,2.4,2.6,2.6,4.1c0,0.1,0,0.3,0,0.7c0,0.6,0.1,1.7,0.1,2.9
				c0,0.5,0,1.1,0.1,1.7c0.1,2.6,0.2,5.3,0.3,6.7c0,0.1,0,0.1,0,0.2c0,0.3,0,0.7,0,1.2C54.3,134.9,54.3,136.4,54.3,138.1z"/>
			<path class="st16" d="M37.7,93c0,0-0.4,13.8,9.9,15.4c10.3,1.7,3.5,2.1,3.5,2.1s-19.4-0.8-19.8-1.3C31,108.7,37.7,93,37.7,93z"/>
			<path class="st16" d="M46.4,114.3c0,0-0.2,0.1-0.6,0.4c0,0,0,0,0,0c-1.6,1-6.3,3.7-13.1,5.6c-0.7,0.2-1.5,0.4-2.2,0.5
				c0.1-1.6,0.1-3.2,0.2-4.8c-0.9-0.1-1.8-0.2-2.6-0.4c0-0.2,0.1-0.4,0.1-0.6c0.9-0.4,1.7-0.7,2.6-1c0.7-0.3,1.3-0.5,1.9-0.7
				c2.8-1.1,4.9-1.8,4.9-1.8l8.3,2.6L46.4,114.3z"/>
			<path class="st15" d="M48.6,114.1c0,0-1.1,0.3-2.8,0.6c0,0,0,0,0,0c-3.1,0.6-8.4,1.5-13.1,1.5c-0.7,0-1.4,0-2-0.1
				c-0.9-0.1-1.8-0.2-2.6-0.4c-1.7-0.4-3.1-1-4.1-1.9c-7-7.1,3.8-32.6,6.1-35.1c2.6-2.9,7.5-3.9,10.1-4.3c0.1,0,0.2,0,0.3,0
				c0.9-0.1,1.5-0.1,1.6-0.1c0,0,0,0,0,0s-0.2,0.7-0.6,1.8c-0.1,0.4-0.3,1-0.5,1.5C39.5,83,36.4,93.5,35,99.5
				c-0.5,2.2-0.8,3.7-0.7,4.2c0.5,2,6.2,3.1,9.7,3.5c1.5,0.2,2.6,0.3,2.9,0.3c0,0,0,0,0.1,0l0.2,0.8l0.5,2l0.5,2L48.6,114.1z"/>
			<polygon class="st8" points="68,126.3 44.1,125.3 48.9,95.4 72.9,96.5 			"/>
			<path class="st18" d="M47,107.5c0,0,4.7-0.3,4.9,0.8c0.5,2.5-4,4.6-5.5,4.5C44.9,112.6,45.9,107.3,47,107.5z"/>
			<path class="st18" d="M71.6,102.5c0,0-4.5-1.4-4.9-0.4c-1.1,2.3,2.8,5.4,4.3,5.6C72.4,107.9,72.7,102.6,71.6,102.5z"/>
			<path class="st16" d="M42.7,72.8c0,0-2,0.9-2.9,2.3c0,0,7.3,12.7,7.3,12.6C47,87.6,44.5,74.4,42.7,72.8z"/>
			<path class="st16" d="M51.8,72.9c0.6,0.2,1.9,1.5,2.2,2.2l0.9,11.1c0,0-1.9-8.2-2.8-11.8C51.8,73.5,51.8,73.2,51.8,72.9z"/>
			<path class="st17" d="M56.9,95.8c0,0,0.2-0.8,1.3-0.7c1.1,0.1,7.2,0.4,7.2,0.4s1.2,0,1.1,0.7L56.9,95.8z"/>
			<path class="st5" d="M49.9,67.6c0,0,0.8,0.7,2.1,0.5c0.8-0.1,1.2-1.1,1.2-1.1S51.7,66.8,49.9,67.6z"/>
		</g>
		<g>
			<g>
				<polygon class="st5" points="163.4,76.9 145.7,77 139.9,55 157.6,55 				"/>
				<g>
					<polygon class="st6" points="153.2,57.9 145.8,57.9 145.7,57.6 153.2,57.5 					"/>
					<polygon class="st6" points="154.4,58.8 145.1,58.8 145,58.5 154.3,58.4 					"/>
					<g>
						<polygon class="st6" points="157,63.2 144.9,63.3 144.8,62.9 156.9,62.9 						"/>
						<polygon class="st6" points="157.3,64.3 145.2,64.3 145.1,64 157.2,64 						"/>
						<polygon class="st6" points="157.5,65.4 145.4,65.4 145.4,65.1 157.5,65 						"/>
						<polygon class="st6" points="157.8,66.4 145.7,66.5 145.6,66.2 157.7,66.1 						"/>
						<polygon class="st6" points="158.1,67.5 146,67.6 145.9,67.2 158,67.2 						"/>
					</g>
					<g>
						<polygon class="st6" points="158.8,70.1 146.7,70.2 146.6,69.8 158.7,69.8 						"/>
						<polygon class="st6" points="159.1,71.2 147,71.2 146.9,70.9 159,70.9 						"/>
						<polygon class="st6" points="159.3,72.3 147.2,72.3 147.2,72 159.3,71.9 						"/>
						<polygon class="st6" points="159.6,73.3 147.5,73.4 147.4,73 159.5,73 						"/>
						<polygon class="st6" points="159.9,74.4 147.8,74.4 147.7,74.1 159.8,74.1 						"/>
					</g>
				</g>
			</g>
			<g>
				<polygon class="st5" points="170.5,104.2 152.8,104.3 147.1,82.3 164.8,82.3 				"/>
				<g>
					<polygon class="st6" points="160.4,85.1 152.9,85.2 152.9,84.8 160.3,84.8 					"/>
					<polygon class="st6" points="161.6,86 152.2,86.1 152.2,85.8 161.5,85.7 					"/>
					<g>
						<polygon class="st6" points="164.1,90.5 152,90.6 151.9,90.2 164,90.2 						"/>
						<polygon class="st6" points="164.4,91.6 152.3,91.6 152.2,91.3 164.3,91.3 						"/>
						<polygon class="st6" points="164.7,92.7 152.6,92.7 152.5,92.4 164.6,92.3 						"/>
						<polygon class="st6" points="165,93.7 152.9,93.8 152.8,93.5 164.9,93.4 						"/>
						<polygon class="st6" points="165.2,94.8 153.1,94.8 153,94.5 165.1,94.5 						"/>
					</g>
					<g>
						<polygon class="st6" points="165.9,97.4 153.8,97.5 153.7,97.1 165.8,97.1 						"/>
						<polygon class="st6" points="166.2,98.5 154.1,98.5 154,98.2 166.1,98.2 						"/>
						<polygon class="st6" points="166.5,99.6 154.4,99.6 154.3,99.3 166.4,99.2 						"/>
						<polygon class="st6" points="166.8,100.6 154.7,100.7 154.6,100.3 166.7,100.3 						"/>
						<polygon class="st6" points="167,101.7 154.9,101.7 154.8,101.4 166.9,101.4 						"/>
					</g>
				</g>
			</g>
			<g>
				<polygon class="st5" points="177.7,131.7 160,131.8 154.2,109.8 171.9,109.7 				"/>
				<g>
					<polygon class="st6" points="167.5,112.6 160.1,112.7 160,112.3 167.5,112.3 					"/>
					<polygon class="st6" points="168.7,113.5 159.4,113.6 159.3,113.2 168.6,113.2 					"/>
					<g>
						<polygon class="st6" points="171.3,118 159.2,118 159.1,117.7 171.2,117.7 						"/>
						<polygon class="st6" points="171.6,119.1 159.5,119.1 159.4,118.8 171.5,118.7 						"/>
						<polygon class="st6" points="171.9,120.1 159.8,120.2 159.7,119.9 171.8,119.8 						"/>
						<polygon class="st6" points="172.1,121.2 160,121.3 159.9,120.9 172,120.9 						"/>
						<polygon class="st6" points="172.4,122.3 160.3,122.3 160.2,122 172.3,122 						"/>
					</g>
					<g>
						<polygon class="st6" points="173.1,124.9 161,124.9 160.9,124.6 173,124.6 						"/>
						<polygon class="st6" points="173.4,126 161.3,126 161.2,125.7 173.3,125.6 						"/>
						<polygon class="st6" points="173.7,127 161.6,127.1 161.5,126.8 173.6,126.7 						"/>
						<polygon class="st6" points="173.9,128.1 161.8,128.1 161.7,127.8 173.8,127.8 						"/>
						<polygon class="st6" points="174.2,129.2 162.1,129.2 162,128.9 174.1,128.8 						"/>
					</g>
				</g>
			</g>
			<g>
				<g>
					<polygon class="st5" points="154.4,131.9 92.5,132.1 74.7,63.9 82.8,55.3 134.3,55.1 					"/>
					<polygon class="st6" points="117.3,66.6 95.5,66.7 95.2,65.7 117,65.6 					"/>
					<polygon class="st6" points="120.8,69.2 93.4,69.3 93.1,68.4 120.5,68.3 					"/>
					<g>
						<polygon class="st6" points="128.3,82.4 92.7,82.5 92.5,81.6 128.1,81.4 						"/>
						<polygon class="st6" points="129.1,85.5 93.6,85.7 93.3,84.7 128.9,84.6 						"/>
						<polygon class="st6" points="129.9,88.7 94.4,88.8 94.1,87.9 129.7,87.7 						"/>
						<polygon class="st6" points="130.8,91.8 95.2,92 95,91 130.5,90.9 						"/>
						<polygon class="st6" points="131.6,95 96,95.1 95.8,94.2 131.3,94 						"/>
					</g>
					<g>
						<polygon class="st6" points="133.6,102.6 98,102.8 97.8,101.8 133.3,101.7 						"/>
						<polygon class="st6" points="134.4,105.8 98.9,105.9 98.6,105 134.2,104.8 						"/>
						<polygon class="st6" points="135.2,108.9 99.7,109.1 99.4,108.1 135,108 						"/>
						<polygon class="st6" points="136.1,112.1 100.5,112.2 100.2,111.3 135.8,111.1 						"/>
						<polygon class="st6" points="136.9,115.2 101.3,115.4 101.1,114.4 136.6,114.3 						"/>
					</g>
				</g>
				<polygon class="st6" points="74.7,63.9 85,63.9 82.8,55.3 				"/>
			</g>
		</g>
	</g>
	<g>
		<g>
			<g>
				<path class="st20" d="M223.8,185.4h-50.4v-17.8h50.5c3.9,0,7.1,3.2,7.1,7.1v3.4C231,182.1,227.8,185.4,223.8,185.4z"/>
				<path class="st12" d="M274,174.9v2.7c0,1.4-0.4,2.8-1.1,3.9c-1.4,2.3-3.9,3.9-6.7,3.9h-94.4c-0.6,0-1.1-0.5-1.1-1.1v-0.4
					c0-0.6,0.5-1.1,1.1-1.1h57.5c0.3-0.4,0.6-0.8,0.8-1.2c0.5-1,0.8-2.2,0.8-3.4v-3.4c0-0.6-0.1-1.2-0.2-1.8c-0.3-1-0.7-1.9-1.3-2.6
					h-57.6c-0.6,0-1.1-0.5-1.1-1.1v-0.4c0-0.6,0.5-1.1,1.1-1.1h94.9c3.3,0,6.2,2.2,7,5.3C273.9,173.5,274,174.2,274,174.9z"/>
				<path class="st21" d="M273.8,172.9h-43c-0.3-1-0.7-1.9-1.3-2.6h-57.6c-0.6,0-1.1-0.5-1.1-1.1v-0.4c0-0.6,0.5-1.1,1.1-1.1h94.9
					C270.1,167.6,272.9,169.8,273.8,172.9z"/>
			</g>
			<polygon class="st22" points="173.4,176.5 180.4,176.8 173.4,176.9 			"/>
			<polygon class="st22" points="173.4,179.3 190,179.6 173.4,179.7 			"/>
		</g>
		<g>
			<g>
				<g>
					<path class="st15" d="M185.4,199.2H239v-13.8H185c-3.7,0-6.7,3-6.7,6.7v0C178.3,196,181.5,199.2,185.4,199.2z"/>
					<path class="st20" d="M236,199.2h61v-13.8h-61.2c-3.8,0-6.8,3.1-6.8,6.8v0.1C229,196,232.1,199.2,236,199.2z"/>
					<path class="st15" d="M224.9,199.2h74.2c0.6,0,1-0.5,1-1l0,0c0-0.6-0.5-1-1-1h-74.2c-0.6,0-1,0.5-1,1l0,0
						C223.9,198.7,224.3,199.2,224.9,199.2z"/>
					<path class="st15" d="M224.9,187.4h74.2c0.6,0,1-0.5,1-1l0,0c0-0.6-0.5-1-1-1h-74.2c-0.6,0-1,0.5-1,1l0,0
						C223.9,186.9,224.3,187.4,224.9,187.4z"/>
				</g>
				<polygon class="st22" points="297,192.2 288.7,192.5 297,192.6 				"/>
				<polygon class="st22" points="297,189.1 277.4,189.3 297,189.4 				"/>
			</g>
			<g>
				<path class="st12" d="M277.6,189.3c0,0,0.8,0.6,1.1,1.6c0,0.2,0.1,0.4,0.1,0.5c0,1.3,0,4.2,0,4.2l2.5-1.5l2.5,1.5v-4
					c0-0.8-0.2-1.5-0.6-2c-0.2-0.2-0.4-0.4-0.7-0.4H277.6z"/>
				<path class="st23" d="M277.6,189.3c0,0,0.8,0.6,1.1,1.6l5,0.1c0,0-0.2-1.4-1.2-1.6H277.6z"/>
			</g>
		</g>
		<g>
			<g>
				<g>
					<path class="st20" d="M229.7,167.6h54.8v-20.3h-55c-4.4,0-7.9,3.6-7.9,7.9v4.3C221.6,164,225.2,167.6,229.7,167.6z"/>
					<path class="st24" d="M222.9,155.2v4.4c0,1.9,1,3.5,2.6,4.4c0.7,0.4,1.6,0.7,2.5,0.7h59.5c0.7,0,1.3,0.6,1.3,1.3v0.5
						c0,0.7-0.6,1.3-1.3,1.3H184.7c-2.9,0-5.6-1.5-7.1-3.7c-1-1.4-1.6-3.1-1.6-5v-3.5c0-1.3,0.3-2.5,0.8-3.6
						c1.3-2.7,4.1-4.6,7.4-4.6h103.3c0.7,0,1.3,0.6,1.3,1.3v0.5c0,0.7-0.6,1.3-1.3,1.3h-59.7c-1.4,0-2.7,0.6-3.6,1.6
						C223.4,152.8,222.9,153.9,222.9,155.2z"/>
				</g>
				<polygon class="st22" points="284.5,157.4 276.9,157.8 284.5,158 				"/>
				<polygon class="st22" points="284.5,152.8 266.4,153.1 284.5,153.3 				"/>
			</g>
			<g>
				<path class="st8" d="M266.5,153c0,0,1.2,0.6,1.6,1.7c0.1,0.2,0.1,0.4,0.1,0.6c0.1,1.4,0,4.6,0,4.6l3.5-1.6l3.5,1.6v-4.3
					c0-0.8-0.3-1.6-0.9-2.1c-0.3-0.3-0.6-0.4-1-0.4H266.5z"/>
				<path class="st25" d="M266.5,153c0,0,1.2,0.6,1.6,1.7l7.1,0.1c0,0-0.3-1.5-1.7-1.8H266.5z"/>
			</g>
		</g>
	</g>
	<g>
		<g>
			<path class="st16" d="M230.7,139.7c3.1,5.5,7.1,7.6,7.1,7.6h16.4C254.2,147.3,228.3,135.6,230.7,139.7z"/>
			<g>
				<path class="st18" d="M243.3,182c0.4,0.5,0.5,1,0.3,1.6c0,0,0,0,0,0c-0.4,1.1-1.7,2.3-3.2,3.5c-0.2,0.2-0.4,0.3-0.5,0.4
					c0,0-0.1,0.1-0.1,0.1c0,0-0.1,0.1-0.1,0.1c-1.4,1.3-0.9,1.6-3.4,4.2c-2.9,3-4.8,3-5.4,2.8c-0.5-0.2,0.5-1.8,1.6-3.6
					c0.1-0.1,0.1-0.2,0.2-0.3c0.1-0.2,0.3-0.5,0.4-0.7c1.3-2.1,0.9-3.1,0.6-6.3c-0.2-2.6-4-14.5-4-14.5l5.5-0.9
					c0,0,1.7,9.5,3.5,10.9c1,0.8,2.1,0.8,3,1.4c0.1,0,0.1,0.1,0.2,0.1C242.3,181.1,242.8,181.5,243.3,182z"/>
				<path class="st16" d="M243.3,182c0.4,0.5,0.5,1,0.3,1.6c0,0,0,0,0,0c-0.5,1.1-1.7,2.3-3.2,3.5c-0.2,0.2-0.4,0.3-0.5,0.4
					c0,0-0.1,0.1-0.1,0.1c0,0-0.1,0.1-0.1,0.1c-1.4,1.3-0.9,1.6-3.4,4.2c-2.9,3-4.8,3-5.4,2.8c-0.5-0.2,0.5-1.8,1.6-3.6
					c0.6-0.2,3.2-1.3,5.1-3.8c1.7-2.2,2.9-5,4.1-6.7c0.1,0,0.1,0.1,0.2,0.1C242.3,181.1,242.8,181.5,243.3,182z"/>
				<path class="st18" d="M198.9,178.5c-0.3,1.7-2.8,1.4-5.5,0.8c-2.7-0.7-2.1,0.1-5.9-0.3c-3.8-0.4-5-1.9-5.1-2.4
					c-0.1-0.5,1.8-0.7,3.8-0.9c0.3,0,0.5-0.1,0.8-0.1c2.3-0.3,4-1.8,6.1-3c2-1.2,4.9-5.9,4.9-5.9l5.3,0.4c0,0-2.8,4.2-3.8,6
					c-0.6,1.1-0.6,2.5-0.5,3.6C199,177.3,199,177.9,198.9,178.5z"/>
				<path class="st16" d="M193.5,179.3c-2.7-0.7-2.1,0.1-5.9-0.3c-3.8-0.4-5-1.9-5.1-2.4c-0.1-0.5,1.8-0.7,3.8-0.9l0,0
					c0,0,2.3,1.6,5.5,1.7c2.6,0.1,5.4-0.7,7.2-0.7c0,0.6,0.1,1.2,0,1.8C198.6,180.2,196.2,180,193.5,179.3z"/>
				<path class="st16" d="M219.1,144.8l4.9,13.3l6.4,17.3c0,0,1.7,0.2,3.4-0.3c1.5-0.4,3.3-1.6,3.3-1.6s-1.8-18.6-5.1-29.3
					c-0.9-2.7-1.8-5-2.9-6.2C224.1,131.9,219.1,144.8,219.1,144.8z"/>
				<path class="st15" d="M224.2,123.7c3.2-1,12.4,0.3,21.7,2.1l1.9-3.2l20-1.6c0,0,6.6,14.6,3,24c-0.5,1.4-1.6,2.2-3.4,2.3
					c0,0-0.3,0-0.3,0c0,0-11.9,0-15.8,0c-9.9,0-21-6.8-22.5-7.1c-2.4-0.5-3.3,4.2-5.6,9.2c-2.4,4.9-22.1,21.9-22.1,21.9
					s-3,0-4.3-0.4c-1.3-0.5-1.8-1.2-1.8-1.2S216.9,126.1,224.2,123.7z"/>
				<path class="st16" d="M247.9,95.1c7.1,3.9,21.6,12,21.6,12c0,0,5.3,2,8.3,0c5-3.3,7.7-12.3-1.5-20c-4.6-3.9-7.8-4.8-8.3-10.9
					c-0.3-3.3-4.8-14.3-12.4-13.3c-0.6,0.1-4.5,0.3-7.1,1.6C242.1,67.8,237.2,93.6,247.9,95.1z"/>
				<path class="st18" d="M253.9,91.8c0,0,3.5,1.2,5.9,0.2c2.2-1,3.9-4.6,3.9-4.6c-1,0-2.1-0.9-3-6.7l-0.4,0.2l-7.2,2.6
					c0,0,0.5,2.3,0.9,4.5C254.1,89.7,254.3,91.5,253.9,91.8z"/>
				<path class="st26" d="M253,83.3c0,0,0.5,2.3,0.9,4.5c4.2-0.7,5.8-4.9,6.4-7.1L253,83.3z"/>
				<path class="st18" d="M251.9,85.6c0,0,9.9-1.3,9-7.5c-0.9-6.2-0.3-10.5-6.6-9.9c-6.4,0.6-7.2,3.1-7.4,5.3
					C246.6,75.6,249.3,85.8,251.9,85.6z"/>
				<path class="st16" d="M247.2,70.1c0,0,6.3,5.5,10.7,5.9c4.3,0.4,5.9-0.9,5.9-0.9s-2.5-2.1-4.1-5.5c-0.5-1-1.4-1.7-2.5-1.8
					C254.1,67.5,248.3,67.4,247.2,70.1z"/>
				<path class="st16" d="M251.2,69.6c0,0-2.1,2.1-2.8,3.6c-0.6,1.5-0.8,5-0.3,6.4c0,0-3.3-6.4-1.4-9.6
					C248.6,66.7,251.2,69.6,251.2,69.6z"/>
				<path class="st5" d="M245.5,106.4c0.3,20.1,0.1,15.9,2.3,17.8c0.5,0.5,2,0.7,4,0.9c6.2,0.4,17-0.6,17.4-1.7
					c1.4-3.9,0.4-5.2,1.6-11.2c0.1-0.6,0.3-1.3,0.5-2.1c1-4.1,1.9-5.5-1.6-12.2c-3.2-6-6.5-10.9-6.8-10.7c-8.4,5-9.1,0.8-9.1,0.8
					S245.4,96.6,245.5,106.4z"/>
				<path class="st15" d="M224.1,158.1l6.4,17.3c0,0,1.7,0.2,3.4-0.3c1.5-0.4,3.3-1.6,3.3-1.6s-1.8-18.6-5.1-29.3L224.1,158.1z"/>
				<path class="st5" d="M253.8,87.9c0,0-8.6,1.5-9.6,5.2c-1,3.7-7,25.5-7,25.5s4.4,0.8,6.4-1.2c2-2,7-18.8,7-18.8L253.8,87.9z"/>
				<path class="st27" d="M251.8,125c6.2,0.4,17-0.6,17.4-1.7c1.4-3.9,0.4-5.2,1.6-11.2l-3-8.4c0,0,0.5,9.3-2.3,11.7
					c-2.7,2.4-11.2,4.7-12.6,6.8C252.3,123.2,251.9,124.2,251.8,125z"/>
				<path class="st18" d="M258.8,121.1c0,0-6.1-1.4-7-0.8c-1,0.5-3.4,2.5-3.7,3.2c-0.3,0.7,2.2-0.5,3-0.7c0.5-0.1,1.9,0.3,2.6,0.6
					c2.9,1,4.6,0.5,4.6,0.5L258.8,121.1z"/>
				<path class="st5" d="M262.9,87.1c0,0,8.1,0.5,11,4.4c4,5.5,11.8,29.1,7.3,32.3c-5.1,3.5-23.1,0.9-23.1,0.9s-0.6-2.8,0.2-4.2
					c0.8-1.4,14.4-3.6,15-4.2c0.6-0.6-7.8-12.2-7.8-14.1C265.5,100.4,262.9,87.1,262.9,87.1z"/>
				<path class="st18" d="M251.5,122c0,0-1.3,1.6-1.7,1.8c-0.4,0.2-0.7,0.1-0.7,0.1l0.9-1.5L251.5,122z"/>
				<path class="st18" d="M251.8,120.3l-3.7,1.8c0,0,0.2,0.3,0.6,0.2c0.5,0,1.6-0.4,1.6-0.4L251.8,120.3z"/>
			</g>
			<g>
				<g>
					<polygon class="st8" points="249.8,126.3 220.6,126.3 211.8,104.4 241,104.4 					"/>
					<polygon class="st25" points="220.2,125.4 258.8,125.4 258.8,126.3 220.6,126.3 					"/>
				</g>
				<path class="st5" d="M228,115.4c-0.2-0.8,0.2-1.4,1-1.4c0.8,0,1.6,0.6,1.8,1.4c0.2,0.8-0.2,1.4-1,1.4
					C229,116.8,228.2,116.1,228,115.4z"/>
			</g>
		</g>
	</g>
	<g>
		<g>
			<path class="st14" d="M-15.9,134.9l-0.6,0.4c-0.7,0.5-1.6,0.3-2-0.4l-3.6-5.2c-0.5-0.7-0.3-1.6,0.4-2l0.9-0.6
				c0.1-0.1,0.3-0.1,0.4,0.1c0.1,0.1,0.1,0.3-0.1,0.4l-0.9,0.6c-0.4,0.3-0.5,0.8-0.2,1.2l3.6,5.2c0.3,0.4,0.8,0.5,1.2,0.2l0.6-0.4
				c0.4-0.3,0.5-0.8,0.2-1.2l-2.4-3.5c-0.1-0.1-0.1-0.3,0.1-0.4c0.1-0.1,0.3-0.1,0.4,0.1l2.4,3.5C-15.1,133.5-15.2,134.4-15.9,134.9
				z"/>
		</g>
		<g>
			<path class="st14" d="M-11.9,140l-1.1,0.8c-1,0.7-2.5,0.4-3.3-0.7l-5.4-7.9c-0.1-0.1-0.1-0.3,0.1-0.4c0.1-0.1,0.3-0.1,0.4,0.1
				l5.4,7.9c0.6,0.9,1.7,1.1,2.5,0.6l1.1-0.8c0.8-0.5,0.9-1.7,0.3-2.5l-6.2-8.9c-0.6-0.9-1.7-1.1-2.5-0.6c-0.1,0.1-0.3,0.1-0.4-0.1
				c-0.1-0.1-0.1-0.3,0.1-0.4c1-0.7,2.5-0.4,3.3,0.7l6.2,8.9C-10.7,137.8-10.9,139.3-11.9,140z"/>
		</g>
	</g>
	<g>
		<g>
			<path class="st14" d="M-4.4,181.1l0.1,1.1c0.1,1.2-0.7,2.3-1.9,2.4l-9.3,1.1c-1.2,0.1-2.3-0.7-2.4-1.9l-0.2-1.6
				c0-0.2,0.1-0.4,0.4-0.5c0.2,0,0.4,0.1,0.5,0.4l0.2,1.6c0.1,0.7,0.7,1.2,1.5,1.1l9.3-1.1c0.7-0.1,1.2-0.7,1.1-1.5l-0.1-1.1
				c-0.1-0.7-0.7-1.2-1.5-1.1l-6.2,0.7c-0.2,0-0.4-0.1-0.5-0.4c0-0.2,0.1-0.4,0.4-0.5l6.2-0.7C-5.6,179-4.6,179.9-4.4,181.1z"/>
		</g>
		<g>
			<path class="st14" d="M5,179.4l0.2,2c0.2,1.8-1.2,3.5-3.2,3.8l-14,1.7c-0.2,0-0.4-0.1-0.5-0.4c0-0.2,0.1-0.4,0.4-0.5l14-1.7
				c1.5-0.2,2.6-1.5,2.4-2.8l-0.2-2c-0.2-1.4-1.5-2.4-3-2.2l-15.9,1.9c-1.5,0.2-2.6,1.5-2.4,2.8c0,0.2-0.1,0.4-0.4,0.5
				c-0.2,0-0.4-0.1-0.5-0.4c-0.2-1.8,1.2-3.5,3.2-3.8L1,176.5C3,176.3,4.8,177.6,5,179.4z"/>
		</g>
	</g>
	<circle class="st8" cx="155.1" cy="49.7" r="1.3"/>
	<path class="st28" d="M328.9,200.1H-46.4c-0.2,0-0.4-0.2-0.4-0.4v-0.1c0-0.2,0.2-0.4,0.4-0.4h375.3c0.2,0,0.4,0.2,0.4,0.4v0.1
		C329.3,199.9,329.1,200.1,328.9,200.1z"/>
</g>
</svg>
