<?xml version="1.0" encoding="utf-8"?>
<!-- Generator: Adobe Illustrator 24.2.1, SVG Export Plug-In . SVG Version: 6.00 Build 0)  -->
<svg version="1.1" id="Layer_1" xmlns="http://www.w3.org/2000/svg" xmlns:xlink="http://www.w3.org/1999/xlink" x="0px" y="0px"
	 viewBox="0 0 227 321" style="enable-background:new 0 0 227 321;" xml:space="preserve">
<style type="text/css">
	.st0{fill:#C1CCFA;}
	.st1{fill:#FF9CAF;}
	.st2{fill:#061C73;}
	.st3{opacity:0.46;fill:url(#SVGID_1_);}
	.st4{fill:#FF8800;}
	.st5{fill:url(#SVGID_2_);}
	.st6{fill:url(#SVGID_3_);}
	.st7{fill:#0D3CFA;}
	.st8{fill:none;stroke:#BD6400;stroke-width:0.9562;stroke-miterlimit:10;}
	.st9{fill:none;stroke:#D7DEFA;stroke-width:0.9562;stroke-miterlimit:10;}
</style>
<g>
	<path class="st0" d="M115.5,461.8c0,4-14.6,7.2-32.5,7.2c-18,0-32.5-3.2-32.5-7.2s14.6-7.2,32.5-7.2
		C100.9,454.6,115.5,457.8,115.5,461.8z"/>
	<path class="st0" d="M259.8,461.8c0,4-14.6,7.2-32.5,7.2c-18,0-32.5-3.2-32.5-7.2s14.6-7.2,32.5-7.2
		C245.3,454.6,259.8,457.8,259.8,461.8z"/>
	<g>
		<path class="st1" d="M98.8,387.9c0,0-5.2,40.8-6.8,52.1c-2.3,16.1-24.8,11.6-25.4,16.7c-0.7,5.3,33.3,7.3,36.5,4.8
			c3.2-2.5-1.4-3.7,2-17.6c3.4-13.9,14.3-56.8,14.3-56.8L98.8,387.9z"/>
		<path class="st1" d="M205.1,387.5c0,0,16.1,39.9,19.9,52.5c4.7,15.6-15.2,15.8-14.8,20.9c0.2,2.4,30.6,0.4,33.3-2.6
			c2.7-3-1.6-8.4-5.1-16.7c-6.2-14.7-13.4-58.5-13.4-58.5L205.1,387.5z"/>
		<path class="st2" d="M179.7,176.9c0,0,18.2,62,21.4,129.1c0,0,24.7,48.9,30.3,83.9h-30.3c0,0-36.4-70.4-48.9-157.1
			c0,0-7.9,40.6-16.3,75c0,0,2.8,51.7-2.8,82H97.7c0,0,1.9-75.5,9.8-121.7c7.9-46.1,14-91.4,14-91.4H179.7z"/>
		<linearGradient id="SVGID_1_" gradientUnits="userSpaceOnUse" x1="154.2482" y1="215.1457" x2="154.2482" y2="173.5054">
			<stop  offset="0" style="stop-color:#C5C5C5"/>
			<stop  offset="1" style="stop-color:#5B5B5A"/>
		</linearGradient>
		<path class="st3" d="M190,220.1c-5.2-26-10.3-43.2-10.3-43.2h-58.3c0,0-1.1,8-2.9,20.7C131.6,206,160.3,221.6,190,220.1z"/>
		<path class="st1" d="M103.8,92.6l-26.5,18.3c0,0-25.4-25.2-27.8-29.8c-2.4-4.6-4.6-10.6-9.2-14.1c-4.6-3.5-14.5-6.5-14.9-5.2
			c-0.4,1.4,6.9,2.4,9,4.3c0,0-4.2,7.3-0.7,12.6c3.5,5.3,10.2,6.9,10.2,6.9s18.7,42.5,31.5,43.8c6.6,0.7,38.6-22.8,38.6-22.8
			L103.8,92.6z"/>
		<path class="st2" d="M137,15.8c-9.6,3.2-5.9,12.1-7.8,16.8c-1.9,4.7-7.9,9.3-5.9,17.5c2,8.3,4.2,12.6,2,15.3
			c-2.2,2.6-4,7.5,5.7,7.5c9.8,0,13.2,0,21.1,0c7.9,0,10.1-6.7,6.7-16.3c-3.4-9.6-3.7-25-3.2-31.7C156.3,18.1,143.6,13.6,137,15.8z"
			/>
		<path class="st4" d="M119.9,111.5c0.5,5.4,2.9,9.6,3.5,20c0.6,10.4-4.5,51.7-4.5,51.7c27.8,11.7,68.7,0,68.7,0
			c-10.9-22.8-9.3-53.6-9.3-53.6s16-5,18.3-7c2.3-2-5.6-20.8-8.9-28.9s-11-19.6-19.4-21c-8.4-1.4-22.7-2.3-22.7-2.3
			c-8.9,0-21.6,5.6-29.8,11.7c-8.2,6.1-13.6,11-13.6,11l8.6,20.8c0.7,1.6,2.7,2.2,4.1,1.2L119.9,111.5z"/>
		<path class="st1" d="M149.8,23.9c7.2-0.1,16.3,3.9,17.7,18.6c1.4,14.8-3.4,23.3-3.1,30.9c0,0-17.1,6.5-17.1,0s0.8-9.6-1.2-10.9
			c-2-1.2-10.3-0.3-11.3-4.7c-1.1-4.4,0.5-9.7-1-12.4c-1.6-2.6-3.7-3.3-3.7-3.3s3.3-0.2,5.6-6.6C138,29.3,142.5,23.9,149.8,23.9z"/>
		<linearGradient id="SVGID_2_" gradientUnits="userSpaceOnUse" x1="152.9616" y1="49.8697" x2="154.9934" y2="67.9171">
			<stop  offset="4.431090e-02" style="stop-color:#FF5773"/>
			<stop  offset="1" style="stop-color:#FF5773;stop-opacity:0"/>
		</linearGradient>
		<path class="st5" d="M139.2,61.2c2.7,0.6,5.8,0.7,6.9,1.4c2,1.2,1.2,4.4,1.2,10.9c0,6.5,17.1,0,17.1,0c-0.3-6.8,3.5-14.3,3.3-26.3
			c-0.4,0.1-0.7,0.4-1,0.8C161.7,54.7,143.5,61.7,139.2,61.2z"/>
		<path class="st2" d="M137,15.8c0,0-3.2,7.1,6.2,9.9c9.5,2.7,1.1,16,6.5,24.5c5.4,8.4,8.5,12.5,6.7,21.8c-1.9,9.3,0,16.8,7.5,16.8
			c7.5,0,11.5,0,16.9,0c5.4,0,11.3-5.7,5.1-16.9c-6.2-11.2-11.7-11.8-10.1-24.2C177.4,35,170.9,7.2,137,15.8z"/>
		<linearGradient id="SVGID_3_" gradientUnits="userSpaceOnUse" x1="177.8766" y1="203.672" x2="177.8766" y2="159.6781">
			<stop  offset="0" style="stop-color:#D7DEFA"/>
			<stop  offset="1" style="stop-color:#FFFFFF"/>
		</linearGradient>
		<path class="st6" d="M205.5,212.6h-55.3c-1.5,0-2.7-1.2-2.7-2.7v-41.5c0-1.5,1.2-2.7,2.7-2.7h55.3c1.5,0,2.7,1.2,2.7,2.7v41.5
			C208.2,211.4,207,212.6,205.5,212.6z"/>
		<path class="st7" d="M184.9,189.1c0,3.9-3.1,7-7,7c-3.9,0-7-3.1-7-7c0-3.9,3.1-7,7-7C181.7,182.1,184.9,185.3,184.9,189.1z"/>
		<path class="st2" d="M243.5,458.2c2-2.2,0.2-5.8-2.3-10.9c-6,2.1-12.2,2.4-16.9,2.2c-3.8,6.4-14.4,7.5-14.1,11.3
			C210.4,463.2,240.9,461.2,243.5,458.2z"/>
		<path class="st2" d="M103.8,450.7c-9.9,1.2-15.3,0.3-18.3-1c-7.4,4.5-18.6,3.3-19,6.9c-0.7,5.3,33.3,7.3,36.5,4.8
			C105.6,459.4,103.2,458.3,103.8,450.7z"/>
		<path class="st8" d="M119.9,111.5c-1.6-11.4,8.8-17.3,8.9-22.9"/>
		<path class="st8" d="M165.3,94.4c0,0-2.6,6.8,13,36"/>
		<path class="st1" d="M179.4,126.4l12,33.9c0,0-16.2,42.3-18.6,45.2c-2.5,3-11.2,8.1-10.3,9.2c0.9,1.1,5.6-1.9,5.6-1.9
			s-4,3.9-0.5,3.9c3.6,0,4.7,0,8.1,0c3.4,0,5.3-10.3,5.3-10.3s23.6-33.7,24.4-45.8c0.7-10.3-7.7-33.4-10.2-40
			c-0.4-1-1.5-1.5-2.5-1.1l-12.1,4.4C179.6,124.3,179.1,125.4,179.4,126.4z"/>
		<line class="st9" x1="199.5" y1="383" x2="229.5" y2="383"/>
		<line class="st9" x1="99.1" y1="383" x2="131.8" y2="383"/>
	</g>
</g>
</svg>
