<?xml version="1.0" encoding="utf-8"?>
<!-- Generator: Adobe Illustrator 24.2.1, SVG Export Plug-In . SVG Version: 6.00 Build 0)  -->
<svg version="1.1" id="Layer_1" xmlns="http://www.w3.org/2000/svg" xmlns:xlink="http://www.w3.org/1999/xlink" x="0px" y="0px"
	 viewBox="0 0 366 433" style="enable-background:new 0 0 366 433;" xml:space="preserve">
<style type="text/css">
	.st0{opacity:0.19;fill:#FFB000;}
	.st1{fill:#9BC6F9;}
	.st2{fill:#C9DFFF;}
	.st3{fill:#FFFFFF;}
	.st4{fill:#DD4D05;}
	.st5{fill:#02132B;}
	.st6{fill:#001A49;}
	.st7{fill:#EF9CC1;}
	.st8{fill:#C68209;}
	.st9{fill:#FCB4D2;}
	.st10{fill:#FF5D00;}
	.st11{fill:#6478FF;}
	.st12{fill:#E59A05;}
	.st13{fill:#FC86BC;}
	.st14{opacity:0.26;fill:#6478FF;}
	.st15{fill:#415BD8;}
	.st16{opacity:0.53;fill:#FC86BC;}
	.st17{fill:#0A5B9E;}
	.st18{fill:#0C5282;}
	.st19{fill:#0E6AC6;}
	.st20{fill:#388EF4;}
	.st21{fill:#1B73F0;}
	.st22{fill:#FFB000;}
</style>
<g>
	<g>
		<ellipse class="st0" cx="174.6" cy="426.1" rx="231.2" ry="18.2"/>
		<g>
			<path class="st1" d="M132,404c1.7,0.2,9.1-1.5,15.5,10s14.9,24.7,29.1,24.7c14.2,0,35.6-12.4,36.5-23.6
				c0.9-11.2-25.5-38.5-25.5-38.5l-45.8-2.3L132,404z"/>
			<path class="st2" d="M213.1,415.1c0.7-8.2-13.4-25.1-20.9-33.5c-1.7,0.4-3.5,0.9-5.4,1.6c-45.8,16.7-5.7,54.4-5.1,55
				C195.4,436,212.3,425.1,213.1,415.1z"/>
			<path class="st2" d="M52.5,388.9c0,0-9.1-1-18.6-1.5c-9.5-0.5-11.6-2.4-29.3-2.4c-17.7,0.1-31.3,10.7-35.9,18.2
				c-4.7,7.5,11.4,20.8,29.8,24.3c18.4,3.5,32.4,0.8,48.7-1.2c16.3-2,41.2,4.7,45.2-11.9C96.4,397.8,52.5,388.9,52.5,388.9z"/>
			<path class="st1" d="M2.5,385c-16.7,0.8-29.3,10.9-33.8,18.1c-4.7,7.5,11.4,20.8,29.8,24.3c2.8,0.5,5.5,0.9,8.1,1.2
				C19.7,415.2,9.3,395.5,2.5,385z"/>
			<path class="st3" d="M-21,148.1l9-3.7c0,0,34,9,37.6,19c3.6,10,3.6,10,3.6,10s0.9-12.7,19.6-14.7c18.7-2,66.1-6.7,66.1-6.7l1,9.4
				l-88.6,22.2L-21,148.1z"/>
			<path class="st4" d="M149.4,244.6c0,0-18.3,37.8-19.4,44.9c-1.2,7-11.1,26.4-11.1,26.4l47.4-2.6l2-59L149.4,244.6z"/>
			<path class="st5" d="M135.5,315.6c-6.7-1.4-111-61.9-131.2-61.4c-20.3,0.4-32.1,2.9-38,21c-5.9,18.1-6.3,34.4,30,55.2
				C32.6,351.2,131,407.9,131,407.9s5.6-26.2,22.9-26.5c17.3-0.3,47.1,8.6,47.1,8.6L135.5,315.6z"/>
			<path class="st6" d="M-4.2,254.5c-15.1,1.1-24.4,5.2-29.5,20.6c-4,12.2-5.5,23.6,5.2,36.1C-17.4,303.9,5,284.5-4.2,254.5z"/>
			<path class="st7" d="M84.2,284.3c0,0,20,5.5,22.2,4.4c2.1-1.1,14.1-8.1,13.2-8C118.7,280.7,84.2,284.3,84.2,284.3z"/>
			<path class="st8" d="M165.2,95.6c-0.3,1.2-4.4,21.6-8.7,30.9c-4.3,9.3,30.6,1.4,30.6,1.4l4.7-29.8L165.2,95.6z"/>
			<path class="st9" d="M192.5,22.6c0,0-27.2-0.7-33.6,15.4c-6.5,16.1-6,67.4,13.2,70.9c19.2,3.5,31.6-8.1,41.9-16.3
				C257.4,58.6,217.3,17,192.5,22.6z"/>
			<path class="st9" d="M176.7,91.9c0,0,10.9,19.2,4.4,33.3c-9.7,20.8,44,0.1,44,0.1l-19-49.8L176.7,91.9z"/>
			<path class="st9" d="M186.5,116.9l-18.8,2c0,0-14.3,40.4-1.9,71.6c12.4,31.1,78.5-75,78.5-75l-33.6,1.4L186.5,116.9z"/>
			<path class="st10" d="M220.4,113.3c2,0.1,56.7-3.4,70.8,31.4c14.1,34.8-14.9,111.7-14.9,111.7s-10.3-9.8-29.1-9l-4.7,1.4
				l-111.6-6.3l6.4-37.8L120,169.2c0,0-9.8-48.9,57.2-51.3l4.2,14.5c3.5,11.8,19.4,13.8,25.7,3.2L220.4,113.3z"/>
			<path class="st11" d="M31.4,166.7c5.3-3.2,87-11.2,87-11.2l48.7,120.1l-84.9,9c0,0-7.8,3.7-13.7-3.6l-44.5-27l-49.7-108.1
				c0,0,44.2,20.8,46.2,21.7S22.4,172.2,31.4,166.7z"/>
			<path class="st9" d="M251.3,244.1c7.3,0.4,18.5,2.7,24.9,12.3c0,0-3.6,43.8-23.9,39.5s-82.6-38.3-88.7-37.4
				c-6.1,0.9-9.2,4.3-22.7,2.7c-14.1-1.6-12.4-1.7-15.5-7.3c-3.1-5.6-10.3-16.5-12.3-22.2c-2-5.7-12.9-12.5,3.1-11.1
				c16,1.4,20.4,2.9,39.9,12.5c19.4,9.6,37.5,13.1,60.3,14.4c16.3,0.9,23-0.5,25.8-1.8C245,244.4,248.2,243.9,251.3,244.1z"/>
			<path class="st12" d="M174.2,35.2c0,0,9.6,23.8,19.4,23.9c9.8,0.1,9.3,15.9,14.1,12.4c4.9-3.5,5.7-3.6,11.4-3.1
				c5.7,0.5,8.3,14.9-6.8,18c0,0-4.1,3.4-1.5,11.1c2.7,7.6,9.2,8.3,5.1,23.1c-4.1,14.9-2.3,42.4,23.3,28s68.6,15.8,57.6-4.5
				s-11.1-7.5-17-30.8C274,90,263.3,90.1,256.2,68.3c-7.1-21.8-25-55.6-54.5-53.6c-29.5,2-54.2,10.6-46.4,43.6L174.2,35.2z"/>
			<path class="st13" d="M182.7,109.4c0,0,11.5-0.2,19.8-6c0,0-2.8,9.3-19.5,13.9L182.7,109.4z"/>
			<path class="st6" d="M268.2,332.1c0.6-1.7-22.9-57-63.1-72.8c-40.2-15.8-49.2-0.4-65.4,25.4c-16.2,25.7-53.4,80.5-72.1,88.6
				c-18.7,8.1-15.1,15.6-15.1,15.6s2.2,26,19.9,29.2c17.6,3.1,58.4-23.5,67.7-30.1c9.4-6.6,32.9-32,32.9-32s19.3,65.5,59,63.5
				c39.7-2,59.5-34.8,55.6-56.7c-3.9-21.9-18-33.5-18-33.5L268.2,332.1z"/>
			<path class="st14" d="M180.2,297.1c25,2.9,36.2-18.6,40.1-29.2c-4.8-3.5-9.8-6.5-15.2-8.6c-29.6-11.6-42.3-6.3-53.4,7.5l0,0
				C151.7,266.8,147.3,293.2,180.2,297.1z"/>
			<path class="st4" d="M233.9,247.2c0,0-1.7-26,3.5-42.7c5.2-16.7,6-40.8-2.6-24.8c-8.6,16-11.6,45.3-25.4,52.4
				c-13.8,7-17.3,12.8-17.3,12.8S221,249.9,233.9,247.2z"/>
			<path class="st4" d="M136.6,200.1c0,0,17.5-31.7,18.2-40.9c0.7-9.1-27,19.1-27,19.1L136.6,200.1z"/>
			<path class="st5" d="M231.9,419.5c19.6-1,34.3-9.5,43.7-20.4c-45,23.6-66.3-30.4-70.7-52.9c-4.4-22.5-7-21.9-14.7-10.1
				c-7.7,11.8-17.3,19.9-17.3,19.9S192.2,421.5,231.9,419.5z"/>
			<path class="st15" d="M-25.7,145.8L24,253.9l44.5,27l-48-113.3C18.4,166.7-25.7,145.8-25.7,145.8z"/>
			<path class="st15" d="M34.8,165.7c0.6,2.3,47.4,118.9,47.4,118.9l41.6-4.4c0,0-20.4-3.1-23.2-17.2c-2.8-14.1-0.1-17-17.1-28.6
				S34.8,165.7,34.8,165.7z"/>
			<path class="st9" d="M-1,212.4c0,0,3.9-7.3,8.9-9.2s1.8,10.4-1.8,14.7c-3.6,4.3,7.1-0.5,11.7,7.1c4.6,7.6,10.9,16.7,7.1,21.2
				c-3.7,4.4-0.9,7.8-0.9,7.8l44.5,27c0,0-11.2-1.4-25-9.3c-13.8-7.9-17.2-10-25.8-10.9c-8.6-0.9-18.6-8.3-26.8-25.3
				c0,0-3.5-8.1-0.2-12.5C-6,218.5-1,212.4-1,212.4z"/>
			<path class="st16" d="M276.2,256.5c-6.4-9.6-17.6-11.9-24.9-12.3c-3.1-0.2-6.3,0.3-9.1,1.6c-1.3,0.6-3.3,1.1-6.7,1.6
				c4.7,0.3,18.9,1.8,23.5,11c5.5,11.1,20,5.3,3.4,31.7c-1.5,2.3-2.2,4-2.4,5.2C273.6,288.7,276.2,256.5,276.2,256.5z"/>
			<path class="st4" d="M275.1,264.5c0.3-1.9-0.4,31.5,7.4,51.3c7.8,19.8,5.5,51.3,5.5,51.3s-17.1-20.9-26-43.1
				c-1.9-4.9-4.7-9.9-7.6-14.6c-4.8-7.9-9.8-18.5-10.3-19.1c-0.3-0.4,0-0.2,0.4,0.2c0.9,0.9,2.1,1.7,3.4,2
				C253.7,294.3,270,295.8,275.1,264.5z"/>
		</g>
	</g>
	<g>
		<g>
			<path class="st17" d="M320.2,371.7c0,0,42.8-73.3,65.5-95.2c22.7-21.9,31.2-7.5,33.2-5.1c2,2.4-1.8,13.5-10.8,19.1l-11.2-0.6
				l7.4,3.1c0,0-11.3,11.7-18.7,17.8c-7.3,6.1-55.1,50.7-59.7,64.6L320.2,371.7z"/>
			<path class="st18" d="M329.7,368.6c12.6-18.1,49.5-52.4,55.8-57.7c7.3-6.1,18.7-17.8,18.7-17.8l-7.4-3.1l11.2,0.6
				c9.1-5.6,12.8-16.8,10.8-19.1c-0.3-0.4-0.8-1-1.4-1.8C405.1,271.4,376.8,286.2,329.7,368.6z"/>
		</g>
		<g>
			<path class="st17" d="M345.3,387c0,0-33.9-54.7-51.5-70.8c-17.6-16.1-23.8-5-25.2-3.2c-1.5,1.8,1.6,10.2,8.6,14.3l8.4-0.6
				l-5.5,2.5c0,0,8.8,8.6,14.5,13.1c5.7,4.5,42.7,37.3,46.5,47.8L345.3,387z"/>
			<path class="st18" d="M338,384.9c-9.9-13.4-38.5-38.7-43.5-42.6c-5.7-4.5-14.5-13.1-14.5-13.1l5.5-2.5l-8.4,0.6
				c-7-4.1-10.1-12.4-8.6-14.3c0.2-0.3,0.6-0.8,1.1-1.4C278.9,312.8,300.7,323.5,338,384.9z"/>
		</g>
		<g>
			<path class="st17" d="M324.1,377.9c0,0,5.5-64.1,1-87.5c-4.5-23.4-16.1-18.2-18.3-17.6c-2.3,0.6-4.8,9.1-1.6,16.6l7.2,4.5l-6-1.3
				c0,0,1.9,12.2,3.8,19.2c1.9,7,12,55.4,8.8,66.1L324.1,377.9z"/>
			<path class="st18" d="M319.5,371.9c0.1-16.7-7.8-54-9.4-60.1c-1.9-7-3.8-19.2-3.8-19.2l6,1.3l-7.2-4.5c-3.2-7.4-0.6-16,1.6-16.6
				c0.4-0.1,0.9-0.3,1.7-0.5C315.3,278.8,326.3,300.3,319.5,371.9z"/>
		</g>
		<path class="st17" d="M339,394.8c0,0,8.8-118.4,0-161.6c-8.8-43.2-30-33.3-34.2-32.2c-4.2,1.1-8.6,16.9-2.6,30.6l13.3,8.2l-11-2.3
			c0,0,3.8,22.5,7.4,35.4c3.6,12.9,23.3,102.1,17.6,121.8H339z"/>
		<path class="st19" d="M330.5,383.7c-0.2-30.8-15.5-99.5-18.6-110.7c-3.6-12.9-7.4-35.4-7.4-35.4l11,2.3l-13.3-8.2
			c-6-13.7-1.5-29.5,2.6-30.6c0.7-0.2,1.7-0.6,3.1-0.9C320.6,211.9,341.5,251.5,330.5,383.7z"/>
		<path class="st19" d="M338,368.7c0,0,2.7-27.2,12-48.2c9.3-21,37.7-68.7,27.4-98.8c-10.3-30-32.3-7.7-35.5,19.4
			s-12.6,104.9-6.8,129.4L338,368.7z"/>
		<path class="st17" d="M377.4,221.7c10.3,30-18.1,77.8-27.4,98.8c-9.3,21-12,48.2-12,48.2l-2.9,1.8c0-0.2-0.1-0.4-0.1-0.6
			c10.8-31.7,24.6-125.7,30.6-162.3C370.1,208.3,374.3,212.6,377.4,221.7z"/>
		<path class="st20" d="M329.3,360.9c0,0-1.9-52.6-23.9-71.3c-21.9-18.7-52.9-13.2-55.8-24.5c-2.9-11.3,1.6-19.7,17.4-19
			c15.8,0.6,76.2,8.4,67.1,114.9H329.3z"/>
		<g>
			<path class="st21" d="M337.7,368.3c0,0,10.4-42.2,33.3-64.1c22.9-21.9,50.6-15.6,51.9-38.9c1.3-23.2-22-12.1-37.6-0.6
				c-15.6,11.4-46.9,48.8-51.7,104.7L337.7,368.3z"/>
			<path class="st19" d="M334.5,366.6c0-0.4,0.1-0.7,0.1-1.1c20.1-83.3,68.5-98.2,88.4-103.4c0.1,1,0.1,2,0,3.2
				c-1.3,23.2-29,17-51.9,38.9c-22.9,21.9-33.3,64.1-33.3,64.1l-4.1,1.1c0.2-1,0.4-1.9,0.7-2.8H334.5z"/>
		</g>
		<path class="st20" d="M346.3,392.5c0,0,1.3-35,15.9-47.5c14.6-12.5,35.2-8.8,37.1-16.3c1.9-7.5-1.1-13.1-11.6-12.7
			c-10.5,0.4-50.7,5.6-44.7,76.4H346.3z"/>
		<path class="st21" d="M362.2,345.1c14.6-12.5,35.2-8.8,37.1-16.3c0.5-1.9,0.7-3.8,0.5-5.4c-15.2,0.4-59.6,6.7-53.4,67.7
			C346.8,384.5,349.3,356.1,362.2,345.1z"/>
		<path class="st20" d="M315.8,361.3c0,0-1.3-35-15.9-47.5c-14.6-12.5-35.2-8.8-37.1-16.3c-1.9-7.5,1.1-13.1,11.6-12.7
			c10.5,0.4,50.7,5.6,44.7,76.4H315.8z"/>
		<path class="st21" d="M300,313.9c-14.6-12.5-35.2-8.8-37.1-16.3c-0.5-1.9-0.7-3.8-0.5-5.4c15.2,0.4,59.6,6.7,53.4,67.7
			C315.4,353.3,312.8,324.9,300,313.9z"/>
		<path class="st21" d="M305.4,289.6c-21.9-18.7-52.9-13.2-55.8-24.5c-0.8-2.9-1-5.6-0.7-8.1c22.8,0.6,89.7,10.1,80.3,101.8
			C328.5,348.8,324.7,306,305.4,289.6z"/>
		<path class="st21" d="M355,427.3c-11.4,4-23.9,4.1-37.6,0L304,358.6h68.7L355,427.3z"/>
		<rect x="301.7" y="354.3" class="st22" width="73.2" height="11.8"/>
	</g>
</g>
</svg>
