<?xml version="1.0" encoding="utf-8"?>
<!-- Generator: Adobe Illustrator 24.2.1, SVG Export Plug-In . SVG Version: 6.00 Build 0)  -->
<svg version="1.1" id="Layer_1" xmlns="http://www.w3.org/2000/svg" xmlns:xlink="http://www.w3.org/1999/xlink" x="0px" y="0px"
	 viewBox="0 0 366 433" style="enable-background:new 0 0 366 433;" xml:space="preserve">
<style type="text/css">
	.st0{fill:#C9DFFF;}
	.st1{fill:#136AD1;}
	.st2{fill:#1B73F0;}
	.st3{fill:#0F63B7;}
	.st4{opacity:0.2;fill:#1B73F0;}
	.st5{fill:#001A49;}
	.st6{fill:#FFFFFF;}
	.st7{fill:#FF8BB7;}
	.st8{fill:#F2649E;}
	.st9{fill:#6478FF;}
	.st10{fill:#FF9100;}
	.st11{fill:#FFB000;}
	.st12{fill:#2E53BC;}
	.st13{fill:#4362D1;}
	.st14{fill:#FF9700;}
	.st15{opacity:0.31;fill:#2E53BC;}
	.st16{fill:#DD4B03;}
	.st17{fill:#FF5D00;}
</style>
<g>
	<g>
		<path class="st0" d="M43.6,324.4c6.8-5.2,18.7-67.6-4.7-116.9s-57.1-51.3-62.7-28.7C-29.5,201.4-16.1,370.2,43.6,324.4z"/>
		<g>
			<path class="st1" d="M-5.2,172.1c0,0-19.4,7.1-11,52.6S3.3,321,18.5,326c15.2,5,0,11.3,0,11.3S-9.4,322-18.3,264.4
				c-8.9-57.7-23-98.8-5.5-111.8C-6.2,139.6-5.2,172.1-5.2,172.1z"/>
			<path class="st2" d="M123.3,112.3c-13.9,1.5-46.5-9.7-92.1,18.7c-45.6,28.4-55.8-19-54.9,21.6c0.8,40.6,35.5,1.3,51.6,72.1
				c16.1,70.8,12.7,93.8-9.3,101.3c-22,7.5-3.4,26,8.5,18.5c11.8-7.6,90.5-6.5,139.1-32c48.6-25.5,78,0.6,80.6-20.1
				c2.6-20.6-16.8-166.3-42.2-174.6C179.1,109.5,192.9,104.9,123.3,112.3z"/>
		</g>
		<path class="st3" d="M99.2,317.1c-12.8,0.5-13.3-0.3-25-24.6c-11.7-24.3-43.8-120.4-41.1-137.6c2.1-12.9,28.4-32.6,41.4-41.6
			c20.8-4,36.5-0.8,45.9-0.9l14.1,1.4l38.1,174.9l-38.9,36.2c-8.9,2.5-18.1,4.6-27.1,6.3C107.6,325.2,107.4,316.8,99.2,317.1z"/>
	</g>
	<path class="st4" d="M-14.7,348.5c0-12.7,52-23.1,116-23.1c64.1,0,116,10.3,116,23.1c0,2.9-2.7,5.7-7.6,8.2
		c25.2-0.9,51.9-1.4,79.6-1.4c149.8,0,271.3,14.8,271.3,33.1c0,18.3-121.5,33.1-271.3,33.1S18,406.6,18,388.3
		c0-6.7,16.3-12.9,44.4-18.1C17.4,367-14.7,358.5-14.7,348.5z"/>
	<g>
		<g>
			<path class="st5" d="M397,374.5c0,0-4.9,23.5,6.8,27.7c11.7,4.2,40.5,1.7,63.1,2c22.5,0.3,68.1,1.1,74.3-19.6
				c6.2-20.7-28.1-13.9-45.8-22.3c-17.7-8.4-52.9-21-52.9-21L397,374.5z"/>
			<g>
				<path class="st6" d="M329.8,105.6c0,0-8.2-5.9-8.4-4.7c-0.2,1.1-19,30.1-19,30.1s-39.2-10.4-59.1,0
					c-20,10.4,63.6,14.2,63.6,14.2s5.7-1.7,2.5-7.6l-1-2.3L329.8,105.6z"/>
				<g>
					<path class="st7" d="M132.7,20.8c1.6,0.3,33.9,0.7,36.5,22.7c2.5,22.1,0.1,66.1-21.4,64.3c-21.5-1.8-30.3-8.6-36.6-16.6
						c-6.3-8-19.2-20.1-18.9-32.6C92.5,46,105,16,132.7,20.8z"/>
					<path class="st7" d="M144,101.8c0,0-2.9,19.4,7.6,24.7c10.5,5.4,9.6,42.9,9.6,42.9l-73.7-47.9c0,0,20-12.1,23-39.3
						S144,101.8,144,101.8z"/>
					<path class="st8" d="M143.6,107.3c0,0-11.6-1.8-23-12.9c-10.1-9.8,23.5,24.5,23.5,24.5L143.6,107.3z"/>
					<path class="st9" d="M103.3,29.1c0,0,8.8-15.3,24.8-16.7c16.1-1.4,36.1,8.6,43.3,14.4c7.1,5.8,13.7,20.9-1.4,31.3
						c0,0-5.6,1.3-17.6-11.5c-12-12.9,5.7,14.5-6.1,6.3c-4.1-2.9-7.2-5.2-9.6-7.1c-1.6-1.3-3.9,0.3-3.3,2.3c2,6.3,3.2,13.7-3.7,10.6
						c-11.4-5.1-0.7,8.7-6.2,8.6c-5.6-0.1-4.2-10-14.2-5.6c-10,4.4-3.6,19.8,9,21.4c0,0-5.1,7.9-10.3,11C102.7,97,79,62.8,89.6,40.2
						c0,0,8.3-10.1,9.9-16.5C100.9,17.3,107.8,16.5,103.3,29.1z"/>
				</g>
				<g>
					<path class="st10" d="M136.7,333.1c-1,1.9-2.1,3.7-3,5.4c-2.4,4.2-4.6,7.9-6.4,10.7c-2.1,3.3-7.2-7-7.8-10.9
						c-1-7.6-1.4-16.5-1.4-16.5c-4-0.2-7.4-6.7-9.8-13.2c26.3-5.5,58.5-34,58.5-34C163.3,282.8,148.4,312.2,136.7,333.1z"/>
					<path class="st11" d="M63.2,130.2c16.1-13.4,36.8-20.8,36.8-20.8l43.8,28l0.1-26.4c0,0,21.1,0.4,38.1,3.5
						c17,3.1,44.8,43.6,44.8,43.6l-8.9,41.4l-51.1,75.1c0,0-32.2,28.4-58.5,34c-1.9,0.4-3.8,0.7-5.7,0.8
						c-27.1,2-59.1-132.7-59.9-145.2C41.9,151.9,47.1,143.6,63.2,130.2z"/>
				</g>
				<path class="st12" d="M283,258.9c0.2,7-4,119.5-91.1,110.6l10.4-86.4l55.2-65.3L283,258.9z"/>
				<path class="st13" d="M280,170.6c0,0,27.3-37.5,51.3-20.5c24,17,14.1,176.6,6.7,200.3c0,0-15.8-17.2-32.6-6.5
					c-16.8,10.7-16.8,10.7-16.8,10.7s-5.9-64.3-5.9-101.5C282.8,215.8,280,170.6,280,170.6z"/>
				<path class="st7" d="M287.9,161.7c9.8-9.9,27.4-22.9,43.5-11.6c5.4,3.8,9.1,14.8,11.5,29.8C329.2,179.8,305.9,179,287.9,161.7z"
					/>
				<path class="st12" d="M421.4,357.1c0,0-114.4-118-134.5-131.3c-20.1-13.3-40.4-33.9-85.6,29.9s-35.5,88.6-64.7,77.4l-3,5.4
					c0,0,21.3,19.3,35.4-6.6c14-25.8,52.2-119.1,92.2-108c34.2,9.4,153,139.1,153,139.1L421.4,357.1z"/>
				<path class="st14" d="M94.8,198.2c-0.4-4-0.3-19.4-9.7-27.9c-9.5-8.5,4-12.2,10.7-3.7c6.7,8.6,17.2,37.9,25.4,42.2
					c8.2,4.4,33.4,22.6,39.2,29.8c0,0-7.3,0.6-13,5.9c-5.7,5.3-21.1,9.1-24.6,7.8c-3.5-1.4-5-2.4-7.9-14.8
					C111.8,225.1,95.6,206.4,94.8,198.2z"/>
				<path class="st14" d="M217.8,199.6c0,0-14.7-23.7-16.2-33.2c-1.4-9.5-7.5-26.2-0.6-17.6c6.9,8.6,22.2,25.3,22.2,25.3
					L217.8,199.6z"/>
				<polygon class="st14" points="151.8,111.4 151.2,151.9 90.6,113.4 100.8,108.2 141,132.4 143.8,111.1 				"/>
				<path class="st14" d="M126,183.6c3.2,5.7,8.4,9,11.4,7.2c3.1-1.7,3-7.8-0.3-13.5c-3.2-5.7-8.4-9-11.5-7.2
					C122.6,171.8,122.7,177.9,126,183.6z"/>
				<path class="st7" d="M166.7,274.7c0,0-8-13.2-10.6-35.2c0,0,7.5-2.5,12.2-6c4.7-3.5,21.9-13.2,25.5-16.3
					c3.6-3.1,15.9-13.4,18.1-15.6c2.2-2.3,5.9-2,5.9-2L166.7,274.7z"/>
				<path class="st8" d="M156.1,239.5c4.9,9.5,12.6,5.4,13.5,11.6c0.9,6.2,19.8-9.8,19.8-9.8l-22.7,33.4
					C166.7,274.7,158.7,261.5,156.1,239.5z"/>
				<path class="st12" d="M343.4,349.7c0,0-12.3-20.1-29.2-17.1c-16.8,3-31.9,18-31.9,18l3.9,6.9c0,0,18.6-11.2,30.1-6.1
					c11.5,5.1,16.8,11.4,20.3,7.6C340.2,355.2,346.1,351.6,343.4,349.7z"/>
				<path class="st9" d="M269.3,165.8c-0.7,0-1.4,0-2.1,0.1C267.9,165.8,268.6,165.8,269.3,165.8z"/>
				<path class="st9" d="M246.1,175.3c-0.4,0.3-0.8,0.6-1.2,0.9C245.3,175.9,245.7,175.6,246.1,175.3z"/>
				<path class="st9" d="M244.1,176.8c-0.4,0.3-0.8,0.6-1.2,0.9C243.2,177.4,243.7,177.1,244.1,176.8z"/>
				<path class="st9" d="M265.3,166.2c-0.2,0-0.4,0.1-0.6,0.1C264.9,166.3,265.1,166.2,265.3,166.2z"/>
				<path class="st9" d="M248,173.9c-0.4,0.3-0.8,0.5-1.1,0.8C247.3,174.4,247.7,174.2,248,173.9z"/>
				<path class="st9" d="M273.8,166.2c-0.5-0.1-1-0.2-1.6-0.2C272.8,166,273.3,166.1,273.8,166.2z"/>
				<path class="st9" d="M240.1,179.9c-0.5,0.4-0.9,0.8-1.4,1.2C239.2,180.7,239.7,180.3,240.1,179.9z"/>
				<path class="st9" d="M242.1,178.3c-0.4,0.3-0.9,0.7-1.3,1C241.2,179,241.7,178.7,242.1,178.3z"/>
				<path class="st9" d="M271.5,165.9c-0.5,0-1-0.1-1.5-0.1C270.5,165.8,271,165.9,271.5,165.9z"/>
				<path class="st9" d="M253.9,170.3c-0.3,0.2-0.7,0.4-1,0.6C253.3,170.7,253.6,170.5,253.9,170.3z"/>
				<path class="st9" d="M257.8,168.5c-0.3,0.1-0.6,0.3-0.9,0.4C257.2,168.8,257.5,168.6,257.8,168.5z"/>
				<path class="st9" d="M259.7,167.7c-0.3,0.1-0.6,0.2-0.9,0.4C259.1,167.9,259.4,167.8,259.7,167.7z"/>
				<path class="st9" d="M263.5,166.6c-0.3,0.1-0.5,0.1-0.8,0.2C263,166.7,263.2,166.6,263.5,166.6z"/>
				<path class="st9" d="M250,172.6c-0.4,0.2-0.7,0.5-1.1,0.7C249.3,173.1,249.7,172.9,250,172.6z"/>
				<path class="st9" d="M261.6,167.1c-0.3,0.1-0.6,0.2-0.8,0.3C261.1,167.3,261.3,167.2,261.6,167.1z"/>
				<path class="st9" d="M252,171.4c-0.4,0.2-0.7,0.4-1.1,0.6C251.3,171.9,251.6,171.7,252,171.4z"/>
				<path class="st9" d="M238.3,181.5c-0.5,0.5-1.1,0.9-1.6,1.4C237.2,182.4,237.7,181.9,238.3,181.5z"/>
				<path class="st9" d="M294.4,175.3c-0.6-0.4-1.2-0.8-1.8-1.2C293.2,174.5,293.8,174.9,294.4,175.3z"/>
				<path class="st9" d="M281.4,168.3c-0.5-0.2-1.1-0.4-1.6-0.6C280.3,167.9,280.8,168.1,281.4,168.3z"/>
				<path class="st9" d="M276.8,166.8c-0.8-0.2-1.5-0.3-2.3-0.5C275.3,166.4,276,166.6,276.8,166.8z"/>
				<path class="st9" d="M279,167.4c-0.8-0.2-1.5-0.5-2.3-0.7C277.5,167,278.3,167.2,279,167.4z"/>
				<path class="st9" d="M255.9,169.4c-0.3,0.2-0.7,0.3-1,0.5C255.2,169.7,255.6,169.5,255.9,169.4z"/>
				<path class="st9" d="M283.9,169.3c-0.6-0.3-1.1-0.5-1.7-0.7C282.7,168.8,283.3,169.1,283.9,169.3z"/>
				<path class="st9" d="M289.3,172.1c-0.8-0.5-1.6-0.9-2.4-1.3C287.8,171.2,288.5,171.7,289.3,172.1z"/>
				<path class="st9" d="M286.9,170.8c-0.8-0.4-1.6-0.8-2.4-1.2C285.3,170,286.1,170.4,286.9,170.8z"/>
				<path class="st9" d="M291.8,173.6c-0.6-0.4-1.2-0.7-1.7-1.1C290.6,172.9,291.2,173.3,291.8,173.6z"/>
				<path class="st15" d="M282.2,168.6c-0.3-0.1-0.5-0.2-0.8-0.3C281.7,168.4,281.9,168.5,282.2,168.6z"/>
				<path class="st15" d="M284.6,169.6c-0.2-0.1-0.5-0.2-0.7-0.3C284.1,169.4,284.3,169.5,284.6,169.6z"/>
				<path class="st15" d="M287,170.8C287,170.8,286.9,170.8,287,170.8C286.9,170.8,287,170.8,287,170.8z"/>
				<path class="st15" d="M290,172.6c-0.2-0.1-0.5-0.3-0.7-0.4C289.6,172.3,289.8,172.4,290,172.6z"/>
				<path class="st15" d="M279.8,167.7c-0.2-0.1-0.5-0.2-0.7-0.2C279.3,167.5,279.5,167.6,279.8,167.7z"/>
				<path class="st15" d="M238.7,181.1c-0.2,0.1-0.3,0.3-0.5,0.4C238.4,181.3,238.6,181.2,238.7,181.1z"/>
				<path class="st15" d="M276.8,166.8C276.8,166.8,276.8,166.8,276.8,166.8C276.8,166.8,276.8,166.8,276.8,166.8z"/>
				<polygon class="st15" points="236.7,182.9 236.7,182.9 236.7,182.9 				"/>
				<path class="st15" d="M274.5,166.3c-0.2,0-0.5-0.1-0.7-0.1C274.1,166.2,274.3,166.2,274.5,166.3z"/>
				<path class="st15" d="M256.9,168.9c-0.3,0.1-0.7,0.3-1,0.5C256.2,169.2,256.6,169,256.9,168.9z"/>
				<path class="st15" d="M292.6,174.1c-0.3-0.2-0.5-0.3-0.8-0.5C292,173.8,292.3,174,292.6,174.1z"/>
				<path class="st15" d="M262.7,166.8c-0.4,0.1-0.7,0.2-1.1,0.3C262,167,262.4,166.9,262.7,166.8z"/>
				<path class="st15" d="M246.9,174.7c-0.3,0.2-0.6,0.4-0.8,0.6C246.3,175.1,246.6,174.9,246.9,174.7z"/>
				<path class="st15" d="M250.9,172.1c-0.3,0.2-0.6,0.4-0.9,0.6C250.3,172.4,250.6,172.3,250.9,172.1z"/>
				<path class="st15" d="M264.7,166.3c-0.4,0.1-0.8,0.2-1.2,0.3C263.9,166.5,264.3,166.4,264.7,166.3z"/>
				<path class="st15" d="M248.9,173.3c-0.3,0.2-0.6,0.4-0.9,0.6C248.3,173.7,248.6,173.5,248.9,173.3z"/>
				<path class="st15" d="M258.8,168.1c-0.3,0.1-0.7,0.3-1,0.4C258.2,168.3,258.5,168.2,258.8,168.1z"/>
				<path class="st15" d="M254.9,169.8c-0.3,0.2-0.6,0.3-1,0.5C254.3,170.2,254.6,170,254.9,169.8z"/>
				<path class="st15" d="M260.8,167.4c-0.3,0.1-0.7,0.2-1,0.4C260.1,167.6,260.4,167.5,260.8,167.4z"/>
				<path class="st15" d="M252.9,170.9c-0.3,0.2-0.6,0.4-0.9,0.5C252.3,171.3,252.6,171.1,252.9,170.9z"/>
				<path class="st15" d="M272.3,166c-0.3,0-0.5,0-0.8-0.1C271.8,165.9,272,165.9,272.3,166z"/>
				<path class="st15" d="M270,165.8c-0.2,0-0.5,0-0.7,0C269.5,165.8,269.7,165.8,270,165.8z"/>
				<path class="st15" d="M244.9,176.2c-0.3,0.2-0.5,0.4-0.8,0.6C244.3,176.6,244.6,176.4,244.9,176.2z"/>
				<path class="st15" d="M242.8,177.7c-0.2,0.2-0.5,0.4-0.7,0.6C242.3,178.1,242.6,177.9,242.8,177.7z"/>
				<path class="st15" d="M240.8,179.4c-0.2,0.2-0.4,0.4-0.6,0.5C240.4,179.7,240.6,179.5,240.8,179.4z"/>
				<path class="st15" d="M267.2,165.9c-0.6,0.1-1.2,0.1-1.8,0.3C265.9,166.1,266.6,166,267.2,165.9z"/>
				<path class="st12" d="M415.6,361.9L415.6,361.9C415.6,361.9,415.6,361.9,415.6,361.9c0.9-0.7,1.8-1.5,2.8-2.2
					c0,0,0.1-0.1,0.1-0.1c1-0.8,2-1.6,3-2.5c15.3-13.2,28.4-16.7,28.4-16.7s-3.6-3.1-9.2-8.1c3.1-0.8,5.3-1.3,5.8-1.6l7.5,10.9
					c0,0-22.2,13.2-32.3,19.4c-10.1,6.2-28,20.7-28,20.7l-7.2-10.6c0,0,1.2-1.1,3.2-2.9c3.8,4.3,5.1,7.6,5.1,7.6
					S403.3,371.6,415.6,361.9z"/>
				<path class="st12" d="M418.5,359.6c1-0.8,2-1.6,3-2.5C420.4,357.9,419.4,358.8,418.5,359.6z"/>
				<path class="st12" d="M415.6,361.9c0.9-0.7,1.8-1.5,2.7-2.2C417.4,360.5,416.5,361.2,415.6,361.9z"/>
				<path class="st12" d="M415.6,361.9c-12.3,9.7-21,13.8-21,13.8s-1.3-3.2-5.1-7.6c3.7-3.4,10.2-9.3,17.2-15.6
					C411.1,357.1,414.1,360.4,415.6,361.9z"/>
				<path class="st12" d="M421.4,357.1c0,0-3.5-3.6-9.3-9.5c0.6-0.5,1.2-1.1,1.8-1.6c8.9-8.2,20-11.8,26.6-13.6
					c5.7,5,9.2,8.1,9.2,8.1S436.8,343.9,421.4,357.1z"/>
				<path class="st12" d="M418.3,359.7c0,0,0.1-0.1,0.1-0.1C418.4,359.6,418.4,359.7,418.3,359.7z"/>
				<polygon class="st12" points="415.6,361.9 415.6,361.9 415.6,361.9 				"/>
				<path class="st12" d="M421.4,357.1c-1,0.9-2,1.7-3,2.5c0,0-0.1,0.1-0.1,0.1c-0.9,0.8-1.9,1.5-2.7,2.2c0,0,0,0,0,0
					c-1.4-1.5-4.5-4.8-8.8-9.3c1.8-1.7,3.6-3.3,5.5-5C418,353.5,421.4,357.1,421.4,357.1z"/>
				<path class="st16" d="M311.3,142.6c0,0,2-1.3-1.8-5.2c0,0,22.9-32.3,22.5-32.5c-0.4-0.3-2.5-1.3-2.5-1.3l-22.8,33.1
					c0,0,6.8,6.4,1.7,6c-4.4-0.3-1.2,0-1.2,0S309.2,144,311.3,142.6z"/>
				<path class="st17" d="M241.3,131L188,200.6l83.3,3.2l39.9-61.2c0,0-9.5,2-12-6.2L241.3,131z"/>
				<path class="st16" d="M271.4,203.8l-11.6-0.4c6.4-10.8,28.6-48.1,39.7-66.4C302.2,144.5,271.4,203.8,271.4,203.8z"/>
				<g>
					<path class="st9" d="M302.5,181.5c-0.6-0.5-1.2-1-1.8-1.5C301.3,180.5,301.9,181,302.5,181.5z"/>
					<path class="st9" d="M300,179.5c-0.8-0.6-1.6-1.3-2.4-1.9C298.4,178.2,299.2,178.8,300,179.5z"/>
					<path class="st9" d="M297.5,177.6c-0.8-0.6-1.7-1.2-2.5-1.8C295.9,176.4,296.7,176.9,297.5,177.6z"/>
					<path class="st9" d="M308.3,186.5c-0.9-0.8-1.7-1.5-2.5-2.3C306.6,185,307.5,185.8,308.3,186.5z"/>
					<path class="st9" d="M305.2,183.7c-0.6-0.5-1.3-1.1-1.9-1.6C303.9,182.7,304.5,183.2,305.2,183.7z"/>
					<path class="st15" d="M303.3,182.1c-0.3-0.2-0.5-0.4-0.8-0.6C302.8,181.7,303,181.9,303.3,182.1z"/>
					<path class="st15" d="M305.8,184.3c-0.2-0.2-0.4-0.3-0.6-0.5C305.4,183.9,305.6,184.1,305.8,184.3z"/>
					<polygon class="st15" points="308.3,186.5 308.3,186.5 308.3,186.5 					"/>
					<path class="st15" d="M295,175.8c-0.2-0.2-0.4-0.3-0.7-0.4C294.6,175.5,294.8,175.6,295,175.8z"/>
					<path class="st15" d="M297.5,177.6C297.5,177.6,297.5,177.6,297.5,177.6C297.5,177.6,297.5,177.6,297.5,177.6z"/>
					<path class="st15" d="M300.7,180c-0.2-0.2-0.5-0.4-0.7-0.5C300.2,179.6,300.4,179.8,300.7,180z"/>
					<path class="st9" d="M236.7,182.9C236.7,182.9,236.7,182.9,236.7,182.9c0.5-0.5,1.1-0.9,1.6-1.4c0.2-0.1,0.3-0.3,0.5-0.4
						c0.5-0.4,0.9-0.8,1.4-1.2c0.2-0.2,0.4-0.4,0.6-0.5c0.4-0.4,0.9-0.7,1.3-1c0.2-0.2,0.5-0.4,0.7-0.6c0.4-0.3,0.8-0.6,1.2-0.9
						c0.3-0.2,0.5-0.4,0.8-0.6c0.4-0.3,0.8-0.6,1.2-0.9c0.3-0.2,0.6-0.4,0.8-0.6c0.4-0.3,0.8-0.5,1.1-0.8c0.3-0.2,0.6-0.4,0.9-0.6
						c0.4-0.2,0.7-0.5,1.1-0.7c0.3-0.2,0.6-0.4,0.9-0.6c0.4-0.2,0.7-0.4,1.1-0.6c0.3-0.2,0.6-0.4,0.9-0.5c0.3-0.2,0.7-0.4,1-0.6
						c0.3-0.2,0.6-0.3,1-0.5c0.3-0.2,0.7-0.3,1-0.5c0.3-0.2,0.7-0.3,1-0.5c0.3-0.1,0.6-0.3,0.9-0.4c0.3-0.1,0.7-0.3,1-0.4
						c0.3-0.1,0.6-0.2,0.9-0.4c0.3-0.1,0.7-0.2,1-0.4c0.3-0.1,0.6-0.2,0.8-0.3c0.4-0.1,0.7-0.2,1.1-0.3c0.3-0.1,0.5-0.1,0.8-0.2
						c0.4-0.1,0.8-0.2,1.2-0.3c0.2,0,0.4-0.1,0.6-0.1c0.6-0.1,1.2-0.2,1.8-0.3c0.7-0.1,1.4-0.1,2.1-0.1c0.2,0,0.5,0,0.7,0
						c0.5,0,1,0,1.5,0.1c0.3,0,0.5,0,0.8,0.1c0.5,0.1,1,0.1,1.6,0.2c0.2,0,0.5,0.1,0.7,0.1c0.7,0.1,1.5,0.3,2.3,0.5c0,0,0,0,0,0
						c0.7,0.2,1.5,0.4,2.3,0.7c0.2,0.1,0.5,0.2,0.7,0.2c0.5,0.2,1.1,0.4,1.6,0.6c0.3,0.1,0.5,0.2,0.8,0.3c0.6,0.2,1.1,0.5,1.7,0.7
						c0.2,0.1,0.5,0.2,0.7,0.3c0.8,0.4,1.6,0.8,2.4,1.2c0,0,0,0,0,0c0.8,0.4,1.6,0.9,2.4,1.3c0.2,0.1,0.5,0.3,0.7,0.4
						c0.6,0.3,1.2,0.7,1.7,1.1c0.3,0.2,0.5,0.3,0.8,0.5c0.6,0.4,1.2,0.8,1.8,1.2c0.2,0.1,0.4,0.3,0.7,0.4c0.8,0.6,1.7,1.2,2.5,1.8
						c0,0,0,0,0,0c0.8,0.6,1.6,1.2,2.4,1.9c0.2,0.2,0.5,0.4,0.7,0.5c0.6,0.5,1.2,1,1.8,1.5c0.3,0.2,0.5,0.4,0.8,0.6
						c0.6,0.5,1.3,1.1,1.9,1.6c0.2,0.2,0.4,0.3,0.6,0.5c0.8,0.7,1.7,1.5,2.5,2.3c0,0,0,0,0,0C308.3,186.5,256,220,236.7,182.9z"/>
					<g>
						<path class="st9" d="M412.2,347.6C384.6,319.3,303.6,236.8,287,225.8c-20.1-13.3-40.4-33.9-85.6,29.9s-35.5,88.6-64.7,77.4
							l0,0c11.7-20.9,26.6-50.3,30-58.5c0,0,35.6-61.2,70-91.8c19.3,37.1,71.7,3.7,71.7,3.7c31.9,29,64.9,80.1,81.2,97.4
							c16.3,17.3,38.7,37.4,51.1,48.4c-6.7,1.8-17.7,5.4-26.6,13.6C413.4,346.5,412.8,347,412.2,347.6z"/>
						<path class="st9" d="M169,331.9c14-25.8,52.2-119.1,92.2-108c28.3,7.8,116,97.8,145.5,128.7c-7,6.4-13.5,12.3-17.2,15.6
							c-2.3-2.7-5.7-5.7-10.2-8.7c-11.9-7.7-112.7-103.7-112.7-103.7s-54.2,113.4-86,119.5c-23.2,4.5-43.9-15.1-53.4-26
							c1.8-2.8,4-6.5,6.4-10.7C140.4,343.2,157.9,352.4,169,331.9z"/>
						<path class="st15" d="M236.7,182.9C236.7,182.9,236.7,182.9,236.7,182.9c0.5-0.5,1.1-0.9,1.6-1.4c0.2-0.1,0.3-0.3,0.5-0.4
							c0.5-0.4,0.9-0.8,1.4-1.2c0.2-0.2,0.4-0.4,0.6-0.5c0.4-0.4,0.9-0.7,1.3-1c0.2-0.2,0.5-0.4,0.7-0.6c0.4-0.3,0.8-0.6,1.2-0.9
							c0.3-0.2,0.5-0.4,0.8-0.6c0.4-0.3,0.8-0.6,1.2-0.9c0.3-0.2,0.6-0.4,0.8-0.6c0.4-0.3,0.8-0.5,1.1-0.8c0.3-0.2,0.6-0.4,0.9-0.6
							c0.4-0.2,0.7-0.5,1.1-0.7c0.3-0.2,0.6-0.4,0.9-0.6c0.4-0.2,0.7-0.4,1.1-0.6c0.3-0.2,0.6-0.4,0.9-0.5c0.3-0.2,0.7-0.4,1-0.6
							c0.3-0.2,0.6-0.3,1-0.5c0.3-0.2,0.7-0.3,1-0.5c0.3-0.2,0.7-0.3,1-0.5c0.3-0.1,0.6-0.3,0.9-0.4c0.3-0.1,0.7-0.3,1-0.4
							c0.3-0.1,0.6-0.2,0.9-0.4c0.3-0.1,0.7-0.2,1-0.4c0.3-0.1,0.6-0.2,0.8-0.3c0.4-0.1,0.7-0.2,1.1-0.3c0.3-0.1,0.5-0.1,0.8-0.2
							c0.4-0.1,0.8-0.2,1.2-0.3c0.2,0,0.4-0.1,0.6-0.1c0.6-0.1,1.2-0.2,1.8-0.3c0.7-0.1,1.4-0.1,2.1-0.1c0.2,0,0.5,0,0.7,0
							c0.5,0,1,0,1.5,0.1c0.3,0,0.5,0,0.8,0.1c0.5,0.1,1,0.1,1.6,0.2c0.2,0,0.5,0.1,0.7,0.1c0.7,0.1,1.5,0.3,2.3,0.5c0,0,0,0,0,0
							c0.7,0.2,1.5,0.4,2.3,0.7c0.2,0.1,0.5,0.2,0.7,0.2c0.5,0.2,1.1,0.4,1.6,0.6c0.3,0.1,0.5,0.2,0.8,0.3c0.6,0.2,1.1,0.5,1.7,0.7
							c0.2,0.1,0.5,0.2,0.7,0.3c0.8,0.4,1.6,0.8,2.4,1.2c0,0,0,0,0,0c0.8,0.4,1.6,0.9,2.4,1.3c0.2,0.1,0.5,0.3,0.7,0.4
							c0.6,0.3,1.2,0.7,1.7,1.1c0.3,0.2,0.5,0.3,0.8,0.5c0.6,0.4,1.2,0.8,1.8,1.2c0.2,0.1,0.4,0.3,0.7,0.4c0.8,0.6,1.7,1.2,2.5,1.8
							c0,0,0,0,0,0c0.8,0.6,1.6,1.2,2.4,1.9c0.2,0.2,0.5,0.4,0.7,0.5c0.6,0.5,1.2,1,1.8,1.5c0.3,0.2,0.5,0.4,0.8,0.6
							c0.6,0.5,1.3,1.1,1.9,1.6c0.2,0.2,0.4,0.3,0.6,0.5c0.8,0.7,1.7,1.5,2.5,2.3c0,0,0,0,0,0C308.3,186.5,256,220,236.7,182.9z"/>
						<path class="st12" d="M201.4,255.8c45.2-63.9,65.4-43.2,85.6-29.9c16.6,11,97.6,93.5,125.2,121.8c-1.8,1.7-3.7,3.4-5.5,5
							c-29.5-30.9-117.2-120.9-145.5-128.7c-40.1-11-78.2,82.2-92.2,108c-11.1,20.5-28.6,11.3-35.4,6.6c1-1.7,2-3.5,3-5.4l0,0
							C165.9,344.4,156.2,319.6,201.4,255.8z"/>
					</g>
				</g>
			</g>
			<path class="st5" d="M332.8,359.1c0,0,3.6,6.9,7.7,16.7c4.2,9.8,21.3,17.2,20.9,28c-0.4,10.8-2.6,12.1-15.2,11.5
				c-12.6-0.6-31.6-1.8-36.8-5.9c-5.3-4.2-15.6-15.6-25.7-17.6c-10-2,2.5-34.4,2.5-34.4S305.7,336.4,332.8,359.1z"/>
		</g>
		<path class="st17" d="M444.9,393.8c16.8,1.3,50.7-3.2,71.9-4.8c15.1-1.1,20.3-9.8,22.8-15.1c2.3,2.4,3.1,5.7,1.6,10.6
			c-6.2,20.7-51.8,19.9-74.3,19.6c-22.5-0.3-51.4,2.2-63.1-2c-6.5-2.4-7.9-10.7-7.8-17.6C416.1,366.4,428.9,392.6,444.9,393.8z"/>
		<path class="st17" d="M292.2,385.6c9.1,0.8,18.2,13.2,32.3,16.4c11.1,2.5,27.8,2.2,37,1.1c0,0.3,0.1,0.5,0.1,0.8
			c-0.4,10.8-2.6,12.1-15.2,11.5c-12.6-0.6-31.6-1.8-36.8-5.9c-5.3-4.2-15.6-15.6-25.7-17.6c-5.7-1.1-4.1-12.1-1.6-21.4
			C296.2,373,283.8,384.8,292.2,385.6z"/>
		<path class="st17" d="M485.1,371.7c0,1.2,1,2.2,2.2,2.2c1.2,0,2.2-1,2.2-2.2s-1-2.2-2.2-2.2C486.1,369.5,485.1,370.5,485.1,371.7z
			"/>
		<path class="st17" d="M476.9,367.3c0.5-1.1,0-2.4-1.1-2.9c-1.1-0.5-2.4,0-2.9,1.1c-0.5,1.1,0,2.4,1.1,2.9
			C475.1,368.9,476.4,368.4,476.9,367.3z"/>
		<path class="st17" d="M315.3,370.3c0.5-1.1,0-2.4-1.1-2.9s-2.4,0-2.9,1.1c-0.5,1.1,0,2.4,1.1,2.9
			C313.5,372,314.8,371.4,315.3,370.3z"/>
		<path class="st17" d="M310.4,360.5c0.5-1.1,0-2.4-1.1-2.9c-1.1-0.5-2.4,0-2.9,1.1c-0.5,1.1,0,2.4,1.1,2.9
			C308.6,362.1,309.9,361.6,310.4,360.5z"/>
		<path class="st17" d="M322.7,380.2c0.5-1.1,0-2.4-1.1-2.9c-1.1-0.5-2.4,0-2.9,1.1c-0.5,1.1,0,2.4,1.1,2.9
			C320.9,381.9,322.2,381.4,322.7,380.2z"/>
		<path class="st17" d="M338.7,377.3c-0.5-1.1-1.4-1.8-2-1.6c-0.6,0.3-0.7,1.4-0.2,2.5c0.5,1.1,1.4,1.8,2,1.6
			C339.1,379.6,339.2,378.4,338.7,377.3z"/>
		<path class="st17" d="M334.9,368.7c-0.5-1.1-1.4-1.8-2-1.6c-0.6,0.3-0.7,1.4-0.2,2.5c0.5,1.1,1.4,1.8,2,1.6
			C335.3,370.9,335.4,369.8,334.9,368.7z"/>
		<path class="st17" d="M331.7,361.5c-0.3-1.2-1-2.1-1.7-1.9c-0.7,0.1-1,1.2-0.7,2.4c0.3,1.2,1,2.1,1.7,1.9
			C331.6,363.8,332,362.7,331.7,361.5z"/>
		<path class="st17" d="M452.8,355.6c0.5-1.1,0-2.4-1.1-2.9c-1.1-0.5-2.4,0-2.9,1.1c-0.5,1.1,0,2.4,1.1,2.9
			C451,357.3,452.3,356.8,452.8,355.6z"/>
		<path class="st17" d="M461.6,360.5c0.5-1.1,0-2.4-1.1-2.9c-1.1-0.5-2.4,0-2.9,1.1c-0.5,1.1,0,2.4,1.1,2.9
			C459.8,362.2,461.1,361.7,461.6,360.5z"/>
		<path class="st17" d="M511.9,366.4c0,0-12.4,14.7-8.4,26.6c4,11.9,32.4-8.5,32.4-8.5l3.8-10.5c0,0-4-5.1-14.1-6
			C515.4,367.2,511.9,366.4,511.9,366.4z"/>
		<path class="st17" d="M361.4,403.8c0,0,2.1-6.6-9.5-15.1s-37.1,1-38.7,10.1c-1.6,9.1,19,9.5,19.9,9.7c0.9,0.2,9.9-0.2,10.9,0
			C345.1,408.8,361.4,403.8,361.4,403.8z"/>
	</g>
</g>
</svg>
